# Blender 4.0.2
# www.blender.org
mtllib axes.mtl
o x-axis
v 0.000000 0.100000 0.000000
v 1.750000 0.250000 -0.000000
v 0.000000 0.098079 -0.019509
v 1.750000 0.245196 -0.048773
v 0.000000 0.092388 -0.038268
v 1.750000 0.230970 -0.095671
v 0.000000 0.083147 -0.055557
v 1.750000 0.207867 -0.138893
v 0.000000 0.070711 -0.070711
v 1.750000 0.176777 -0.176777
v 0.000000 0.055557 -0.083147
v 1.750000 0.138893 -0.207867
v 0.000000 0.038268 -0.092388
v 1.750000 0.095671 -0.230970
v 0.000000 0.019509 -0.098078
v 1.750000 0.048773 -0.245196
v 0.000000 0.000000 -0.100000
v 1.750000 0.000000 -0.250000
v 0.000000 -0.019509 -0.098078
v 1.750000 -0.048773 -0.245196
v 0.000000 -0.038268 -0.092388
v 1.750000 -0.095671 -0.230970
v 0.000000 -0.055557 -0.083147
v 1.750000 -0.138893 -0.207867
v 0.000000 -0.070711 -0.070711
v 1.750000 -0.176777 -0.176777
v 0.000000 -0.083147 -0.055557
v 1.750000 -0.207867 -0.138893
v 0.000000 -0.092388 -0.038268
v 1.750000 -0.230970 -0.095671
v 0.000000 -0.098079 -0.019509
v 1.750000 -0.245196 -0.048773
v 0.000000 -0.100000 0.000000
v 1.750000 -0.250000 -0.000000
v 0.000000 -0.098079 0.019509
v 1.750000 -0.245196 0.048773
v 0.000000 -0.092388 0.038268
v 1.750000 -0.230970 0.095671
v 1.750000 -0.207867 0.138893
v 0.000000 -0.083147 0.055557
v 1.750000 -0.176777 0.176777
v 0.000000 -0.070711 0.070711
v 1.750000 -0.138893 0.207867
v 0.000000 -0.055557 0.083147
v 1.750000 -0.095671 0.230970
v 0.000000 -0.038268 0.092388
v 1.750000 -0.048773 0.245196
v 0.000000 -0.019509 0.098079
v 1.750000 0.000000 0.250000
v 0.000000 0.000000 0.100000
v 0.000000 0.019509 0.098079
v 1.750000 0.048773 0.245196
v 0.000000 0.038268 0.092388
v 1.750000 0.095671 0.230970
v 0.000000 0.055557 0.083147
v 1.750000 0.138893 0.207867
v 0.000000 0.070711 0.070711
v 1.750000 0.176777 0.176777
v 0.000000 0.083147 0.055557
v 1.750000 0.207867 0.138893
v 0.000000 0.092388 0.038268
v 1.750000 0.230970 0.095671
v 0.000000 0.098079 0.019509
v 1.750000 0.245196 0.048773
v 1.750000 0.100000 -0.000000
v 2.250000 0.000000 -0.000000
v 1.750000 0.098079 -0.019509
v 1.750000 0.092388 -0.038268
v 1.750000 0.083147 -0.055557
v 1.750000 0.070711 -0.070711
v 1.750000 0.055557 -0.083147
v 1.750000 0.038268 -0.092388
v 1.750000 0.019509 -0.098079
v 1.750000 0.000000 -0.100000
v 1.750000 -0.019509 -0.098079
v 1.750000 -0.038268 -0.092388
v 1.750000 -0.055557 -0.083147
v 1.750000 -0.070711 -0.070711
v 1.750000 -0.083147 -0.055557
v 1.750000 -0.092388 -0.038268
v 1.750000 -0.098079 -0.019509
v 1.750000 -0.100000 -0.000000
v 1.750000 -0.098079 0.019509
v 1.750000 -0.092388 0.038268
v 1.750000 -0.083147 0.055557
v 1.750000 -0.070711 0.070711
v 1.750000 -0.055557 0.083147
v 1.750000 -0.038268 0.092388
v 1.750000 -0.019509 0.098078
v 1.750000 0.000000 0.100000
v 1.750000 0.019509 0.098078
v 1.750000 0.038268 0.092388
v 1.750000 0.055557 0.083147
v 1.750000 0.070711 0.070711
v 1.750000 0.083147 0.055557
v 1.750000 0.092388 0.038268
v 1.750000 0.098079 0.019509
vn -0.0000 0.9952 -0.0980
vn -0.0000 0.9569 -0.2903
vn -0.0000 0.8819 -0.4714
vn -0.0000 0.7730 -0.6344
vn -0.0000 0.6344 -0.7730
vn -0.0000 0.4714 -0.8819
vn -0.0000 0.2903 -0.9569
vn -0.0000 0.0980 -0.9952
vn -0.0000 -0.0980 -0.9952
vn -0.0000 -0.2903 -0.9569
vn -0.0000 -0.4714 -0.8819
vn -0.0000 -0.6344 -0.7730
vn -0.0000 -0.7730 -0.6344
vn -0.0000 -0.8819 -0.4714
vn -0.0000 -0.9569 -0.2903
vn -0.0000 -0.9952 -0.0980
vn -0.0000 -0.9952 0.0980
vn -0.0000 -0.9569 0.2903
vn -0.0000 -0.8819 0.4714
vn -0.0000 -0.7730 0.6344
vn -0.0000 -0.6344 0.7730
vn -0.0000 -0.4714 0.8819
vn -0.0000 -0.2903 0.9569
vn -0.0000 -0.0980 0.9952
vn -0.0000 0.0980 0.9952
vn -0.0000 0.2903 0.9569
vn -0.0000 0.4714 0.8819
vn -0.0000 0.6344 0.7730
vn -0.0000 0.7730 0.6344
vn -0.0000 0.8819 0.4714
vn -0.0000 0.9569 0.2903
vn -0.0000 0.9952 0.0980
vn -1.0000 -0.0000 -0.0000
vn 0.4455 0.8910 -0.0878
vn 0.4455 0.8567 -0.2599
vn 0.4455 0.7896 -0.4220
vn 0.4455 0.6921 -0.5680
vn 0.4455 0.5680 -0.6921
vn 0.4455 0.4220 -0.7896
vn 0.4455 0.2599 -0.8567
vn 0.4455 0.0878 -0.8910
vn 0.4455 -0.0878 -0.8910
vn 0.4455 -0.2599 -0.8567
vn 0.4455 -0.4220 -0.7896
vn 0.4455 -0.5680 -0.6921
vn 0.4455 -0.6921 -0.5680
vn 0.4455 -0.7896 -0.4220
vn 0.4455 -0.8567 -0.2599
vn 0.4455 -0.8910 -0.0878
vn 0.4455 -0.8910 0.0878
vn 0.4455 -0.8567 0.2599
vn 0.4455 -0.7896 0.4220
vn 0.4455 -0.6921 0.5680
vn 0.4455 -0.5680 0.6921
vn 0.4455 -0.4220 0.7896
vn 0.4455 -0.2599 0.8567
vn 0.4455 -0.0878 0.8910
vn 0.4455 0.0878 0.8910
vn 0.4455 0.2599 0.8567
vn 0.4455 0.4220 0.7896
vn 0.4455 0.5680 0.6921
vn 0.4455 0.6921 0.5680
vn 0.4455 0.7896 0.4220
vn 0.4455 0.8567 0.2599
vn 0.4455 0.8910 0.0878
vt 0.968750 0.500000
vt 1.000000 0.500000
vt 1.000000 0.937500
vt 0.968750 0.937500
vt 0.937500 0.500000
vt 0.937500 0.937500
vt 0.906250 0.500000
vt 0.906250 0.937500
vt 0.875000 0.500000
vt 0.875000 0.937500
vt 0.843750 0.937500
vt 0.843750 0.500000
vt 0.812500 0.937500
vt 0.812500 0.500000
vt 0.781250 0.937500
vt 0.781250 0.500000
vt 0.750000 0.937500
vt 0.750000 0.500000
vt 0.718750 0.937500
vt 0.718750 0.500000
vt 0.687500 0.937500
vt 0.687500 0.500000
vt 0.656250 0.937500
vt 0.656250 0.500000
vt 0.625000 0.937500
vt 0.625000 0.500000
vt 0.593750 0.937500
vt 0.593750 0.500000
vt 0.562500 0.937500
vt 0.562500 0.500000
vt 0.531250 0.937500
vt 0.531250 0.500000
vt 0.500000 0.937500
vt 0.500000 0.500000
vt 0.468750 0.937500
vt 0.468750 0.500000
vt 0.437500 0.937500
vt 0.437500 0.500000
vt 0.406250 0.937500
vt 0.406250 0.500000
vt 0.375000 0.937500
vt 0.375000 0.500000
vt 0.343750 0.500000
vt 0.343750 0.937500
vt 0.312500 0.500000
vt 0.312500 0.937500
vt 0.281250 0.500000
vt 0.281250 0.937500
vt 0.250000 0.500000
vt 0.250000 0.937500
vt 0.218750 0.500000
vt 0.218750 0.937500
vt 0.187500 0.500000
vt 0.187500 0.937500
vt 0.156250 0.500000
vt 0.156250 0.937500
vt 0.125000 0.500000
vt 0.125000 0.937500
vt 0.093750 0.500000
vt 0.093750 0.937500
vt 0.062500 0.500000
vt 0.062500 0.937500
vt 0.031250 0.500000
vt 0.031250 0.937500
vt 0.000000 0.500000
vt 0.000000 0.937500
vt 0.658156 0.471731
vt 0.703178 0.485388
vt 0.750000 0.490000
vt 0.796822 0.485388
vt 0.841844 0.471731
vt 0.883337 0.449553
vt 0.919706 0.419706
vt 0.949553 0.383337
vt 0.971731 0.341844
vt 0.985388 0.296822
vt 0.990000 0.250000
vt 0.985388 0.203178
vt 0.971731 0.158156
vt 0.949553 0.116663
vt 0.919706 0.080294
vt 0.883337 0.050447
vt 0.841844 0.028269
vt 0.796822 0.014612
vt 0.750000 0.010000
vt 0.703178 0.014612
vt 0.658156 0.028269
vt 0.616663 0.050447
vt 0.580294 0.080294
vt 0.550447 0.116663
vt 0.528269 0.158156
vt 0.514612 0.203178
vt 0.510000 0.250000
vt 0.514612 0.296822
vt 0.528269 0.341844
vt 0.550447 0.383337
vt 0.580294 0.419706
vt 0.616663 0.449553
vt 0.250000 0.490000
vt 0.250000 0.250000
vt 0.296822 0.485388
vt 0.341844 0.471731
vt 0.383337 0.449553
vt 0.419706 0.419706
vt 0.449553 0.383337
vt 0.471731 0.341844
vt 0.485388 0.296822
vt 0.490000 0.250000
vt 0.485388 0.203178
vt 0.471731 0.158156
vt 0.449553 0.116663
vt 0.419706 0.080294
vt 0.383337 0.050447
vt 0.341844 0.028269
vt 0.296822 0.014612
vt 0.250000 0.010000
vt 0.203178 0.014612
vt 0.158156 0.028269
vt 0.116663 0.050447
vt 0.080294 0.080294
vt 0.050447 0.116663
vt 0.028269 0.158156
vt 0.014612 0.203178
vt 0.010000 0.250000
vt 0.014612 0.296822
vt 0.028269 0.341844
vt 0.050447 0.383337
vt 0.080294 0.419706
vt 0.116663 0.449553
vt 0.158156 0.471731
vt 0.768729 0.155845
vt 0.786738 0.161308
vt 0.803335 0.170179
vt 0.817882 0.182118
vt 0.829821 0.196665
vt 0.838693 0.213262
vt 0.844156 0.231271
vt 0.846000 0.250000
vt 0.844156 0.268729
vt 0.838693 0.286738
vt 0.829821 0.303335
vt 0.817882 0.317882
vt 0.803335 0.329821
vt 0.786738 0.338692
vt 0.768729 0.344155
vt 0.750000 0.346000
vt 0.731271 0.344155
vt 0.713262 0.338692
vt 0.696665 0.329821
vt 0.682118 0.317882
vt 0.670179 0.303335
vt 0.661308 0.286738
vt 0.655845 0.268729
vt 0.654000 0.250000
vt 0.655845 0.231271
vt 0.661308 0.213262
vt 0.670179 0.196665
vt 0.682118 0.182118
vt 0.696665 0.170179
vt 0.713263 0.161308
vt 0.731271 0.155845
vt 0.750000 0.154000
vt 0.203178 0.485388
s 0
usemtl Material.001
f 3/1/1 1/2/1 65/3/1 67/4/1
f 5/5/2 3/1/2 67/4/2 68/6/2
f 7/7/3 5/5/3 68/6/3 69/8/3
f 9/9/4 7/7/4 69/8/4 70/10/4
f 71/11/5 11/12/5 9/9/5 70/10/5
f 72/13/6 13/14/6 11/12/6 71/11/6
f 73/15/7 15/16/7 13/14/7 72/13/7
f 74/17/8 17/18/8 15/16/8 73/15/8
f 75/19/9 19/20/9 17/18/9 74/17/9
f 76/21/10 21/22/10 19/20/10 75/19/10
f 77/23/11 23/24/11 21/22/11 76/21/11
f 78/25/12 25/26/12 23/24/12 77/23/12
f 79/27/13 27/28/13 25/26/13 78/25/13
f 80/29/14 29/30/14 27/28/14 79/27/14
f 81/31/15 31/32/15 29/30/15 80/29/15
f 82/33/16 33/34/16 31/32/16 81/31/16
f 83/35/17 35/36/17 33/34/17 82/33/17
f 84/37/18 37/38/18 35/36/18 83/35/18
f 85/39/19 40/40/19 37/38/19 84/37/19
f 86/41/20 42/42/20 40/40/20 85/39/20
f 44/43/21 42/42/21 86/41/21 87/44/21
f 46/45/22 44/43/22 87/44/22 88/46/22
f 48/47/23 46/45/23 88/46/23 89/48/23
f 50/49/24 48/47/24 89/48/24 90/50/24
f 51/51/25 50/49/25 90/50/25 91/52/25
f 53/53/26 51/51/26 91/52/26 92/54/26
f 55/55/27 53/53/27 92/54/27 93/56/27
f 57/57/28 55/55/28 93/56/28 94/58/28
f 59/59/29 57/57/29 94/58/29 95/60/29
f 61/61/30 59/59/30 95/60/30 96/62/30
f 63/63/31 61/61/31 96/62/31 97/64/31
f 1/65/32 63/63/32 97/64/32 65/66/32
f 61/67/33 63/68/33 1/69/33 3/70/33 5/71/33 7/72/33 9/73/33 11/74/33 13/75/33 15/76/33 17/77/33 19/78/33 21/79/33 23/80/33 25/81/33 27/82/33 29/83/33 31/84/33 33/85/33 35/86/33 37/87/33 40/88/33 42/89/33 44/90/33 46/91/33 48/92/33 50/93/33 51/94/33 53/95/33 55/96/33 57/97/33 59/98/33
f 2/99/34 66/100/34 4/101/34
f 4/101/35 66/100/35 6/102/35
f 6/102/36 66/100/36 8/103/36
f 8/103/37 66/100/37 10/104/37
f 10/104/38 66/100/38 12/105/38
f 12/105/39 66/100/39 14/106/39
f 14/106/40 66/100/40 16/107/40
f 16/107/41 66/100/41 18/108/41
f 66/100/42 20/109/42 18/108/42
f 66/100/43 22/110/43 20/109/43
f 66/100/44 24/111/44 22/110/44
f 66/100/45 26/112/45 24/111/45
f 66/100/46 28/113/46 26/112/46
f 66/100/47 30/114/47 28/113/47
f 66/100/48 32/115/48 30/114/48
f 66/100/49 34/116/49 32/115/49
f 36/117/50 34/116/50 66/100/50
f 38/118/51 36/117/51 66/100/51
f 39/119/52 38/118/52 66/100/52
f 41/120/53 39/119/53 66/100/53
f 43/121/54 41/120/54 66/100/54
f 45/122/55 43/121/55 66/100/55
f 47/123/56 45/122/56 66/100/56
f 49/124/57 47/123/57 66/100/57
f 52/125/58 49/124/58 66/100/58
f 54/126/59 52/125/59 66/100/59
f 56/127/60 54/126/60 66/100/60
f 58/128/61 56/127/61 66/100/61
f 60/129/62 58/128/62 66/100/62
f 62/130/63 60/129/63 66/100/63
f 64/68/33 2/69/33 4/70/33 6/71/33 8/72/33 10/73/33 12/74/33 14/75/33 16/76/33 18/77/33 20/78/33 22/79/33 24/80/33 26/81/33 28/82/33 30/83/33 32/84/33 81/131/33 80/132/33 79/133/33 78/134/33 77/135/33 76/136/33 75/137/33 74/138/33 73/139/33 72/140/33 71/141/33 70/142/33 69/143/33 68/144/33 67/145/33 65/146/33 97/147/33 96/148/33 95/149/33 94/150/33 93/151/33 92/152/33 91/153/33 90/154/33 89/155/33 47/92/33 49/93/33 52/94/33 54/95/33 56/96/33 58/97/33 60/98/33 62/67/33
f 89/155/33 88/156/33 87/157/33 86/158/33 85/159/33 84/160/33 83/161/33 82/162/33 81/131/33 32/84/33 34/85/33 36/86/33 38/87/33 39/88/33 41/89/33 43/90/33 45/91/33 47/92/33
f 64/163/64 62/130/64 66/100/64
f 64/163/65 66/100/65 2/99/65
o y-axis
v 0.000000 0.000000 -0.100000
v 0.000000 1.750000 -0.250000
v 0.019509 0.000000 -0.098078
v 0.048773 1.750000 -0.245196
v 0.038268 0.000000 -0.092388
v 0.095671 1.750000 -0.230970
v 0.055557 0.000000 -0.083147
v 0.138893 1.750000 -0.207867
v 0.070711 0.000000 -0.070711
v 0.176777 1.750000 -0.176777
v 0.083147 0.000000 -0.055557
v 0.207867 1.750000 -0.138893
v 0.092388 0.000000 -0.038268
v 0.230970 1.750000 -0.095671
v 0.098079 0.000000 -0.019509
v 0.245196 1.750000 -0.048773
v 0.100000 0.000000 0.000000
v 0.250000 1.750000 -0.000000
v 0.098079 0.000000 0.019509
v 0.245196 1.750000 0.048773
v 0.092388 0.000000 0.038268
v 0.230970 1.750000 0.095671
v 0.083147 0.000000 0.055557
v 0.207867 1.750000 0.138893
v 0.070711 0.000000 0.070711
v 0.176777 1.750000 0.176777
v 0.055557 0.000000 0.083147
v 0.138893 1.750000 0.207867
v 0.038268 0.000000 0.092388
v 0.095671 1.750000 0.230970
v 0.019509 0.000000 0.098079
v 0.048773 1.750000 0.245196
v 0.000000 0.000000 0.100000
v 0.000000 1.750000 0.250000
v -0.019509 0.000000 0.098079
v -0.048773 1.750000 0.245196
v -0.038268 0.000000 0.092388
v -0.095671 1.750000 0.230970
v -0.138893 1.750000 0.207867
v -0.055557 0.000000 0.083147
v -0.176777 1.750000 0.176777
v -0.070711 0.000000 0.070711
v -0.207867 1.750000 0.138893
v -0.083147 0.000000 0.055557
v -0.230970 1.750000 0.095671
v -0.092388 0.000000 0.038268
v -0.245196 1.750000 0.048773
v -0.098079 0.000000 0.019509
v -0.250000 1.750000 -0.000000
v -0.100000 0.000000 0.000000
v -0.098079 0.000000 -0.019509
v -0.245196 1.750000 -0.048773
v -0.092388 0.000000 -0.038268
v -0.230970 1.750000 -0.095671
v -0.083147 0.000000 -0.055557
v -0.207867 1.750000 -0.138893
v -0.070711 0.000000 -0.070711
v -0.176777 1.750000 -0.176777
v -0.055557 0.000000 -0.083147
v -0.138893 1.750000 -0.207867
v -0.038268 0.000000 -0.092388
v -0.095671 1.750000 -0.230970
v -0.019509 0.000000 -0.098078
v -0.048773 1.750000 -0.245196
v 0.000000 1.750000 -0.100000
v 0.000000 2.250000 -0.000000
v 0.019509 1.750000 -0.098079
v 0.038268 1.750000 -0.092388
v 0.055557 1.750000 -0.083147
v 0.070711 1.750000 -0.070711
v 0.083147 1.750000 -0.055557
v 0.092388 1.750000 -0.038268
v 0.098079 1.750000 -0.019509
v 0.100000 1.750000 -0.000000
v 0.098079 1.750000 0.019509
v 0.092388 1.750000 0.038268
v 0.083147 1.750000 0.055557
v 0.070711 1.750000 0.070711
v 0.055557 1.750000 0.083147
v 0.038268 1.750000 0.092388
v 0.019509 1.750000 0.098078
v 0.000000 1.750000 0.100000
v -0.019509 1.750000 0.098078
v -0.038268 1.750000 0.092388
v -0.055557 1.750000 0.083147
v -0.070711 1.750000 0.070711
v -0.083147 1.750000 0.055557
v -0.092388 1.750000 0.038268
v -0.098079 1.750000 0.019509
v -0.100000 1.750000 -0.000000
v -0.098079 1.750000 -0.019509
v -0.092388 1.750000 -0.038268
v -0.083147 1.750000 -0.055557
v -0.070711 1.750000 -0.070711
v -0.055557 1.750000 -0.083147
v -0.038268 1.750000 -0.092388
v -0.019509 1.750000 -0.098079
vn 0.0980 -0.0000 -0.9952
vn 0.2903 -0.0000 -0.9569
vn 0.4714 -0.0000 -0.8819
vn 0.6344 -0.0000 -0.7730
vn 0.7730 -0.0000 -0.6344
vn 0.8819 -0.0000 -0.4714
vn 0.9569 -0.0000 -0.2903
vn 0.9952 -0.0000 -0.0980
vn 0.9952 -0.0000 0.0980
vn 0.9569 -0.0000 0.2903
vn 0.8819 -0.0000 0.4714
vn 0.7730 -0.0000 0.6344
vn 0.6344 -0.0000 0.7730
vn 0.4714 -0.0000 0.8819
vn 0.2903 -0.0000 0.9569
vn 0.0980 -0.0000 0.9952
vn -0.0980 -0.0000 0.9952
vn -0.2903 -0.0000 0.9569
vn -0.4714 -0.0000 0.8819
vn -0.6344 -0.0000 0.7730
vn -0.7730 -0.0000 0.6344
vn -0.8819 -0.0000 0.4714
vn -0.9569 -0.0000 0.2903
vn -0.9952 -0.0000 0.0980
vn -0.9952 -0.0000 -0.0980
vn -0.9569 -0.0000 -0.2903
vn -0.8819 -0.0000 -0.4714
vn -0.7730 -0.0000 -0.6344
vn -0.6344 -0.0000 -0.7730
vn -0.4714 -0.0000 -0.8819
vn -0.2903 -0.0000 -0.9569
vn -0.0980 -0.0000 -0.9952
vn -0.0000 -1.0000 -0.0000
vn 0.0878 0.4455 -0.8910
vn 0.2599 0.4455 -0.8567
vn 0.4220 0.4455 -0.7896
vn 0.5680 0.4455 -0.6921
vn 0.6921 0.4455 -0.5680
vn 0.7896 0.4455 -0.4220
vn 0.8567 0.4455 -0.2599
vn 0.8910 0.4455 -0.0878
vn 0.8910 0.4455 0.0878
vn 0.8567 0.4455 0.2599
vn 0.7896 0.4455 0.4220
vn 0.6921 0.4455 0.5680
vn 0.5680 0.4455 0.6921
vn 0.4220 0.4455 0.7896
vn 0.2599 0.4455 0.8567
vn 0.0878 0.4455 0.8910
vn -0.0878 0.4455 0.8910
vn -0.2599 0.4455 0.8567
vn -0.4220 0.4455 0.7896
vn -0.5680 0.4455 0.6921
vn -0.6921 0.4455 0.5680
vn -0.7896 0.4455 0.4220
vn -0.8567 0.4455 0.2599
vn -0.8910 0.4455 0.0878
vn -0.8910 0.4455 -0.0878
vn -0.8567 0.4455 -0.2599
vn -0.7896 0.4455 -0.4220
vn -0.6921 0.4455 -0.5680
vn -0.5680 0.4455 -0.6921
vn -0.4220 0.4455 -0.7896
vn -0.2599 0.4455 -0.8567
vn -0.0878 0.4455 -0.8910
vt 0.968750 0.500000
vt 1.000000 0.500000
vt 1.000000 0.937500
vt 0.968750 0.937500
vt 0.937500 0.500000
vt 0.937500 0.937500
vt 0.906250 0.500000
vt 0.906250 0.937500
vt 0.875000 0.500000
vt 0.875000 0.937500
vt 0.843750 0.937500
vt 0.843750 0.500000
vt 0.812500 0.937500
vt 0.812500 0.500000
vt 0.781250 0.937500
vt 0.781250 0.500000
vt 0.750000 0.937500
vt 0.750000 0.500000
vt 0.718750 0.937500
vt 0.718750 0.500000
vt 0.687500 0.937500
vt 0.687500 0.500000
vt 0.656250 0.937500
vt 0.656250 0.500000
vt 0.625000 0.937500
vt 0.625000 0.500000
vt 0.593750 0.937500
vt 0.593750 0.500000
vt 0.562500 0.937500
vt 0.562500 0.500000
vt 0.531250 0.937500
vt 0.531250 0.500000
vt 0.500000 0.937500
vt 0.500000 0.500000
vt 0.468750 0.937500
vt 0.468750 0.500000
vt 0.437500 0.937500
vt 0.437500 0.500000
vt 0.406250 0.937500
vt 0.406250 0.500000
vt 0.375000 0.937500
vt 0.375000 0.500000
vt 0.343750 0.500000
vt 0.343750 0.937500
vt 0.312500 0.500000
vt 0.312500 0.937500
vt 0.281250 0.500000
vt 0.281250 0.937500
vt 0.250000 0.500000
vt 0.250000 0.937500
vt 0.218750 0.500000
vt 0.218750 0.937500
vt 0.187500 0.500000
vt 0.187500 0.937500
vt 0.156250 0.500000
vt 0.156250 0.937500
vt 0.125000 0.500000
vt 0.125000 0.937500
vt 0.093750 0.500000
vt 0.093750 0.937500
vt 0.062500 0.500000
vt 0.062500 0.937500
vt 0.031250 0.500000
vt 0.031250 0.937500
vt 0.000000 0.500000
vt 0.000000 0.937500
vt 0.658156 0.471731
vt 0.703178 0.485388
vt 0.750000 0.490000
vt 0.796822 0.485388
vt 0.841844 0.471731
vt 0.883337 0.449553
vt 0.919706 0.419706
vt 0.949553 0.383337
vt 0.971731 0.341844
vt 0.985388 0.296822
vt 0.990000 0.250000
vt 0.985388 0.203178
vt 0.971731 0.158156
vt 0.949553 0.116663
vt 0.919706 0.080294
vt 0.883337 0.050447
vt 0.841844 0.028269
vt 0.796822 0.014612
vt 0.750000 0.010000
vt 0.703178 0.014612
vt 0.658156 0.028269
vt 0.616663 0.050447
vt 0.580294 0.080294
vt 0.550447 0.116663
vt 0.528269 0.158156
vt 0.514612 0.203178
vt 0.510000 0.250000
vt 0.514612 0.296822
vt 0.528269 0.341844
vt 0.550447 0.383337
vt 0.580294 0.419706
vt 0.616663 0.449553
vt 0.250000 0.490000
vt 0.250000 0.250000
vt 0.296822 0.485388
vt 0.341844 0.471731
vt 0.383337 0.449553
vt 0.419706 0.419706
vt 0.449553 0.383337
vt 0.471731 0.341844
vt 0.485388 0.296822
vt 0.490000 0.250000
vt 0.485388 0.203178
vt 0.471731 0.158156
vt 0.449553 0.116663
vt 0.419706 0.080294
vt 0.383337 0.050447
vt 0.341844 0.028269
vt 0.296822 0.014612
vt 0.250000 0.010000
vt 0.203178 0.014612
vt 0.158156 0.028269
vt 0.116663 0.050447
vt 0.080294 0.080294
vt 0.050447 0.116663
vt 0.028269 0.158156
vt 0.014612 0.203178
vt 0.010000 0.250000
vt 0.014612 0.296822
vt 0.028269 0.341844
vt 0.050447 0.383337
vt 0.080294 0.419706
vt 0.116663 0.449553
vt 0.158156 0.471731
vt 0.768729 0.155845
vt 0.786738 0.161308
vt 0.803335 0.170179
vt 0.817882 0.182118
vt 0.829821 0.196665
vt 0.838693 0.213262
vt 0.844156 0.231271
vt 0.846000 0.250000
vt 0.844156 0.268729
vt 0.838693 0.286738
vt 0.829821 0.303335
vt 0.817882 0.317882
vt 0.803335 0.329821
vt 0.786738 0.338692
vt 0.768729 0.344155
vt 0.750000 0.346000
vt 0.731271 0.344155
vt 0.713262 0.338692
vt 0.696665 0.329821
vt 0.682118 0.317882
vt 0.670179 0.303335
vt 0.661308 0.286738
vt 0.655845 0.268729
vt 0.654000 0.250000
vt 0.655845 0.231271
vt 0.661308 0.213262
vt 0.670179 0.196665
vt 0.682118 0.182118
vt 0.696665 0.170179
vt 0.713263 0.161308
vt 0.731271 0.155845
vt 0.750000 0.154000
vt 0.203178 0.485388
s 0
usemtl Material.002
f 100/164/66 98/165/66 162/166/66 164/167/66
f 102/168/67 100/164/67 164/167/67 165/169/67
f 104/170/68 102/168/68 165/169/68 166/171/68
f 106/172/69 104/170/69 166/171/69 167/173/69
f 168/174/70 108/175/70 106/172/70 167/173/70
f 169/176/71 110/177/71 108/175/71 168/174/71
f 170/178/72 112/179/72 110/177/72 169/176/72
f 171/180/73 114/181/73 112/179/73 170/178/73
f 172/182/74 116/183/74 114/181/74 171/180/74
f 173/184/75 118/185/75 116/183/75 172/182/75
f 174/186/76 120/187/76 118/185/76 173/184/76
f 175/188/77 122/189/77 120/187/77 174/186/77
f 176/190/78 124/191/78 122/189/78 175/188/78
f 177/192/79 126/193/79 124/191/79 176/190/79
f 178/194/80 128/195/80 126/193/80 177/192/80
f 179/196/81 130/197/81 128/195/81 178/194/81
f 180/198/82 132/199/82 130/197/82 179/196/82
f 181/200/83 134/201/83 132/199/83 180/198/83
f 182/202/84 137/203/84 134/201/84 181/200/84
f 183/204/85 139/205/85 137/203/85 182/202/85
f 141/206/86 139/205/86 183/204/86 184/207/86
f 143/208/87 141/206/87 184/207/87 185/209/87
f 145/210/88 143/208/88 185/209/88 186/211/88
f 147/212/89 145/210/89 186/211/89 187/213/89
f 148/214/90 147/212/90 187/213/90 188/215/90
f 150/216/91 148/214/91 188/215/91 189/217/91
f 152/218/92 150/216/92 189/217/92 190/219/92
f 154/220/93 152/218/93 190/219/93 191/221/93
f 156/222/94 154/220/94 191/221/94 192/223/94
f 158/224/95 156/222/95 192/223/95 193/225/95
f 160/226/96 158/224/96 193/225/96 194/227/96
f 98/228/97 160/226/97 194/227/97 162/229/97
f 158/230/98 160/231/98 98/232/98 100/233/98 102/234/98 104/235/98 106/236/98 108/237/98 110/238/98 112/239/98 114/240/98 116/241/98 118/242/98 120/243/98 122/244/98 124/245/98 126/246/98 128/247/98 130/248/98 132/249/98 134/250/98 137/251/98 139/252/98 141/253/98 143/254/98 145/255/98 147/256/98 148/257/98 150/258/98 152/259/98 154/260/98 156/261/98
f 99/262/99 163/263/99 101/264/99
f 101/264/100 163/263/100 103/265/100
f 103/265/101 163/263/101 105/266/101
f 105/266/102 163/263/102 107/267/102
f 107/267/103 163/263/103 109/268/103
f 109/268/104 163/263/104 111/269/104
f 111/269/105 163/263/105 113/270/105
f 113/270/106 163/263/106 115/271/106
f 163/263/107 117/272/107 115/271/107
f 163/263/108 119/273/108 117/272/108
f 163/263/109 121/274/109 119/273/109
f 163/263/110 123/275/110 121/274/110
f 163/263/111 125/276/111 123/275/111
f 163/263/112 127/277/112 125/276/112
f 163/263/113 129/278/113 127/277/113
f 163/263/114 131/279/114 129/278/114
f 133/280/115 131/279/115 163/263/115
f 135/281/116 133/280/116 163/263/116
f 136/282/117 135/281/117 163/263/117
f 138/283/118 136/282/118 163/263/118
f 140/284/119 138/283/119 163/263/119
f 142/285/120 140/284/120 163/263/120
f 144/286/121 142/285/121 163/263/121
f 146/287/122 144/286/122 163/263/122
f 149/288/123 146/287/123 163/263/123
f 151/289/124 149/288/124 163/263/124
f 153/290/125 151/289/125 163/263/125
f 155/291/126 153/290/126 163/263/126
f 157/292/127 155/291/127 163/263/127
f 159/293/128 157/292/128 163/263/128
f 161/231/98 99/232/98 101/233/98 103/234/98 105/235/98 107/236/98 109/237/98 111/238/98 113/239/98 115/240/98 117/241/98 119/242/98 121/243/98 123/244/98 125/245/98 127/246/98 129/247/98 178/294/98 177/295/98 176/296/98 175/297/98 174/298/98 173/299/98 172/300/98 171/301/98 170/302/98 169/303/98 168/304/98 167/305/98 166/306/98 165/307/98 164/308/98 162/309/98 194/310/98 193/311/98 192/312/98 191/313/98 190/314/98 189/315/98 188/316/98 187/317/98 186/318/98 144/255/98 146/256/98 149/257/98 151/258/98 153/259/98 155/260/98 157/261/98 159/230/98
f 186/318/98 185/319/98 184/320/98 183/321/98 182/322/98 181/323/98 180/324/98 179/325/98 178/294/98 129/247/98 131/248/98 133/249/98 135/250/98 136/251/98 138/252/98 140/253/98 142/254/98 144/255/98
f 161/326/129 159/293/129 163/263/129
f 161/326/130 163/263/130 99/262/130
o z-axis
v 0.000000 0.100000 0.000000
v 0.000000 0.250000 1.750000
v 0.019509 0.098079 0.000000
v 0.048773 0.245196 1.750000
v 0.038268 0.092388 0.000000
v 0.095671 0.230970 1.750000
v 0.055557 0.083147 0.000000
v 0.138893 0.207867 1.750000
v 0.070711 0.070711 0.000000
v 0.176777 0.176777 1.750000
v 0.083147 0.055557 0.000000
v 0.207867 0.138893 1.750000
v 0.092388 0.038268 0.000000
v 0.230970 0.095671 1.750000
v 0.098079 0.019509 0.000000
v 0.245196 0.048773 1.750000
v 0.100000 0.000000 0.000000
v 0.250000 0.000000 1.750000
v 0.098079 -0.019509 0.000000
v 0.245196 -0.048773 1.750000
v 0.092388 -0.038268 0.000000
v 0.230970 -0.095671 1.750000
v 0.083147 -0.055557 0.000000
v 0.207867 -0.138893 1.750000
v 0.070711 -0.070711 0.000000
v 0.176777 -0.176777 1.750000
v 0.055557 -0.083147 0.000000
v 0.138893 -0.207867 1.750000
v 0.038268 -0.092388 0.000000
v 0.095671 -0.230970 1.750000
v 0.019509 -0.098079 0.000000
v 0.048773 -0.245196 1.750000
v 0.000000 -0.100000 0.000000
v 0.000000 -0.250000 1.750000
v -0.019509 -0.098079 0.000000
v -0.048773 -0.245196 1.750000
v -0.038268 -0.092388 0.000000
v -0.095671 -0.230970 1.750000
v -0.138893 -0.207867 1.750000
v -0.055557 -0.083147 0.000000
v -0.176777 -0.176777 1.750000
v -0.070711 -0.070711 0.000000
v -0.207867 -0.138893 1.750000
v -0.083147 -0.055557 0.000000
v -0.230970 -0.095671 1.750000
v -0.092388 -0.038268 0.000000
v -0.245196 -0.048773 1.750000
v -0.098079 -0.019509 0.000000
v -0.250000 0.000000 1.750000
v -0.100000 0.000000 0.000000
v -0.098079 0.019509 0.000000
v -0.245196 0.048773 1.750000
v -0.092388 0.038268 0.000000
v -0.230970 0.095671 1.750000
v -0.083147 0.055557 0.000000
v -0.207867 0.138893 1.750000
v -0.070711 0.070711 0.000000
v -0.176777 0.176777 1.750000
v -0.055557 0.083147 0.000000
v -0.138893 0.207867 1.750000
v -0.038268 0.092388 0.000000
v -0.095671 0.230970 1.750000
v -0.019509 0.098079 0.000000
v -0.048773 0.245196 1.750000
v 0.000000 0.100000 1.750000
v 0.000000 0.000000 2.250000
v 0.019509 0.098079 1.750000
v 0.038268 0.092388 1.750000
v 0.055557 0.083147 1.750000
v 0.070711 0.070711 1.750000
v 0.083147 0.055557 1.750000
v 0.092388 0.038268 1.750000
v 0.098079 0.019509 1.750000
v 0.100000 0.000000 1.750000
v 0.098079 -0.019509 1.750000
v 0.092388 -0.038268 1.750000
v 0.083147 -0.055557 1.750000
v 0.070711 -0.070711 1.750000
v 0.055557 -0.083147 1.750000
v 0.038268 -0.092388 1.750000
v 0.019509 -0.098079 1.750000
v 0.000000 -0.100000 1.750000
v -0.019509 -0.098079 1.750000
v -0.038268 -0.092388 1.750000
v -0.055557 -0.083147 1.750000
v -0.070711 -0.070711 1.750000
v -0.083147 -0.055557 1.750000
v -0.092388 -0.038268 1.750000
v -0.098079 -0.019509 1.750000
v -0.100000 0.000000 1.750000
v -0.098079 0.019509 1.750000
v -0.092388 0.038268 1.750000
v -0.083147 0.055557 1.750000
v -0.070711 0.070711 1.750000
v -0.055557 0.083147 1.750000
v -0.038268 0.092388 1.750000
v -0.019509 0.098079 1.750000
vn 0.0980 0.9952 -0.0000
vn 0.2903 0.9569 -0.0000
vn 0.4714 0.8819 -0.0000
vn 0.6344 0.7730 -0.0000
vn 0.7730 0.6344 -0.0000
vn 0.8819 0.4714 -0.0000
vn 0.9569 0.2903 -0.0000
vn 0.9952 0.0980 -0.0000
vn 0.9952 -0.0980 -0.0000
vn 0.9569 -0.2903 -0.0000
vn 0.8819 -0.4714 -0.0000
vn 0.7730 -0.6344 -0.0000
vn 0.6344 -0.7730 -0.0000
vn 0.4714 -0.8819 -0.0000
vn 0.2903 -0.9569 -0.0000
vn 0.0980 -0.9952 -0.0000
vn -0.0980 -0.9952 -0.0000
vn -0.2903 -0.9569 -0.0000
vn -0.4714 -0.8819 -0.0000
vn -0.6344 -0.7730 -0.0000
vn -0.7730 -0.6344 -0.0000
vn -0.8819 -0.4714 -0.0000
vn -0.9569 -0.2903 -0.0000
vn -0.9952 -0.0980 -0.0000
vn -0.9952 0.0980 -0.0000
vn -0.9569 0.2903 -0.0000
vn -0.8819 0.4714 -0.0000
vn -0.7730 0.6344 -0.0000
vn -0.6344 0.7730 -0.0000
vn -0.4714 0.8819 -0.0000
vn -0.2903 0.9569 -0.0000
vn -0.0980 0.9952 -0.0000
vn -0.0000 -0.0000 -1.0000
vn 0.0878 0.8910 0.4455
vn 0.2599 0.8567 0.4455
vn 0.4220 0.7896 0.4455
vn 0.5680 0.6921 0.4455
vn 0.6921 0.5680 0.4455
vn 0.7896 0.4220 0.4455
vn 0.8567 0.2599 0.4455
vn 0.8910 0.0878 0.4455
vn 0.8910 -0.0878 0.4455
vn 0.8567 -0.2599 0.4455
vn 0.7896 -0.4220 0.4455
vn 0.6921 -0.5680 0.4455
vn 0.5680 -0.6921 0.4455
vn 0.4220 -0.7896 0.4455
vn 0.2599 -0.8567 0.4455
vn 0.0878 -0.8910 0.4455
vn -0.0878 -0.8910 0.4455
vn -0.2599 -0.8567 0.4455
vn -0.4220 -0.7896 0.4455
vn -0.5680 -0.6921 0.4455
vn -0.6921 -0.5680 0.4455
vn -0.7896 -0.4220 0.4455
vn -0.8567 -0.2599 0.4455
vn -0.8910 -0.0878 0.4455
vn -0.8910 0.0878 0.4455
vn -0.8567 0.2599 0.4455
vn -0.7896 0.4220 0.4455
vn -0.6921 0.5680 0.4455
vn -0.5680 0.6921 0.4455
vn -0.4220 0.7896 0.4455
vn -0.2599 0.8567 0.4455
vn -0.0878 0.8910 0.4455
vt 0.968750 0.500000
vt 1.000000 0.500000
vt 1.000000 0.937500
vt 0.968750 0.937500
vt 0.937500 0.500000
vt 0.937500 0.937500
vt 0.906250 0.500000
vt 0.906250 0.937500
vt 0.875000 0.500000
vt 0.875000 0.937500
vt 0.843750 0.937500
vt 0.843750 0.500000
vt 0.812500 0.937500
vt 0.812500 0.500000
vt 0.781250 0.937500
vt 0.781250 0.500000
vt 0.750000 0.937500
vt 0.750000 0.500000
vt 0.718750 0.937500
vt 0.718750 0.500000
vt 0.687500 0.937500
vt 0.687500 0.500000
vt 0.656250 0.937500
vt 0.656250 0.500000
vt 0.625000 0.937500
vt 0.625000 0.500000
vt 0.593750 0.937500
vt 0.593750 0.500000
vt 0.562500 0.937500
vt 0.562500 0.500000
vt 0.531250 0.937500
vt 0.531250 0.500000
vt 0.500000 0.937500
vt 0.500000 0.500000
vt 0.468750 0.937500
vt 0.468750 0.500000
vt 0.437500 0.937500
vt 0.437500 0.500000
vt 0.406250 0.937500
vt 0.406250 0.500000
vt 0.375000 0.937500
vt 0.375000 0.500000
vt 0.343750 0.500000
vt 0.343750 0.937500
vt 0.312500 0.500000
vt 0.312500 0.937500
vt 0.281250 0.500000
vt 0.281250 0.937500
vt 0.250000 0.500000
vt 0.250000 0.937500
vt 0.218750 0.500000
vt 0.218750 0.937500
vt 0.187500 0.500000
vt 0.187500 0.937500
vt 0.156250 0.500000
vt 0.156250 0.937500
vt 0.125000 0.500000
vt 0.125000 0.937500
vt 0.093750 0.500000
vt 0.093750 0.937500
vt 0.062500 0.500000
vt 0.062500 0.937500
vt 0.031250 0.500000
vt 0.031250 0.937500
vt 0.000000 0.500000
vt 0.000000 0.937500
vt 0.658156 0.471731
vt 0.703178 0.485388
vt 0.750000 0.490000
vt 0.796822 0.485388
vt 0.841844 0.471731
vt 0.883337 0.449553
vt 0.919706 0.419706
vt 0.949553 0.383337
vt 0.971731 0.341844
vt 0.985388 0.296822
vt 0.990000 0.250000
vt 0.985388 0.203178
vt 0.971731 0.158156
vt 0.949553 0.116663
vt 0.919706 0.080294
vt 0.883337 0.050447
vt 0.841844 0.028269
vt 0.796822 0.014612
vt 0.750000 0.010000
vt 0.703178 0.014612
vt 0.658156 0.028269
vt 0.616663 0.050447
vt 0.580294 0.080294
vt 0.550447 0.116663
vt 0.528269 0.158156
vt 0.514612 0.203178
vt 0.510000 0.250000
vt 0.514612 0.296822
vt 0.528269 0.341844
vt 0.550447 0.383337
vt 0.580294 0.419706
vt 0.616663 0.449553
vt 0.250000 0.490000
vt 0.250000 0.250000
vt 0.296822 0.485388
vt 0.341844 0.471731
vt 0.383337 0.449553
vt 0.419706 0.419706
vt 0.449553 0.383337
vt 0.471731 0.341844
vt 0.485388 0.296822
vt 0.490000 0.250000
vt 0.485388 0.203178
vt 0.471731 0.158156
vt 0.449553 0.116663
vt 0.419706 0.080294
vt 0.383337 0.050447
vt 0.341844 0.028269
vt 0.296822 0.014612
vt 0.250000 0.010000
vt 0.203178 0.014612
vt 0.158156 0.028269
vt 0.116663 0.050447
vt 0.080294 0.080294
vt 0.050447 0.116663
vt 0.028269 0.158156
vt 0.014612 0.203178
vt 0.010000 0.250000
vt 0.014612 0.296822
vt 0.028269 0.341844
vt 0.050447 0.383337
vt 0.080294 0.419706
vt 0.116663 0.449553
vt 0.158156 0.471731
vt 0.768729 0.155845
vt 0.786738 0.161308
vt 0.803335 0.170179
vt 0.817882 0.182118
vt 0.829821 0.196665
vt 0.838693 0.213262
vt 0.844156 0.231271
vt 0.846000 0.250000
vt 0.844156 0.268729
vt 0.838693 0.286738
vt 0.829821 0.303335
vt 0.817882 0.317882
vt 0.803335 0.329821
vt 0.786738 0.338692
vt 0.768729 0.344155
vt 0.750000 0.346000
vt 0.731271 0.344155
vt 0.713262 0.338692
vt 0.696665 0.329821
vt 0.682118 0.317882
vt 0.670179 0.303335
vt 0.661308 0.286738
vt 0.655845 0.268729
vt 0.654000 0.250000
vt 0.655845 0.231271
vt 0.661308 0.213262
vt 0.670179 0.196665
vt 0.682118 0.182118
vt 0.696665 0.170179
vt 0.713263 0.161308
vt 0.731271 0.155845
vt 0.750000 0.154000
vt 0.203178 0.485388
s 0
usemtl Material.003
f 197/327/131 195/328/131 259/329/131 261/330/131
f 199/331/132 197/327/132 261/330/132 262/332/132
f 201/333/133 199/331/133 262/332/133 263/334/133
f 203/335/134 201/333/134 263/334/134 264/336/134
f 265/337/135 205/338/135 203/335/135 264/336/135
f 266/339/136 207/340/136 205/338/136 265/337/136
f 267/341/137 209/342/137 207/340/137 266/339/137
f 268/343/138 211/344/138 209/342/138 267/341/138
f 269/345/139 213/346/139 211/344/139 268/343/139
f 270/347/140 215/348/140 213/346/140 269/345/140
f 271/349/141 217/350/141 215/348/141 270/347/141
f 272/351/142 219/352/142 217/350/142 271/349/142
f 273/353/143 221/354/143 219/352/143 272/351/143
f 274/355/144 223/356/144 221/354/144 273/353/144
f 275/357/145 225/358/145 223/356/145 274/355/145
f 276/359/146 227/360/146 225/358/146 275/357/146
f 277/361/147 229/362/147 227/360/147 276/359/147
f 278/363/148 231/364/148 229/362/148 277/361/148
f 279/365/149 234/366/149 231/364/149 278/363/149
f 280/367/150 236/368/150 234/366/150 279/365/150
f 238/369/151 236/368/151 280/367/151 281/370/151
f 240/371/152 238/369/152 281/370/152 282/372/152
f 242/373/153 240/371/153 282/372/153 283/374/153
f 244/375/154 242/373/154 283/374/154 284/376/154
f 245/377/155 244/375/155 284/376/155 285/378/155
f 247/379/156 245/377/156 285/378/156 286/380/156
f 249/381/157 247/379/157 286/380/157 287/382/157
f 251/383/158 249/381/158 287/382/158 288/384/158
f 253/385/159 251/383/159 288/384/159 289/386/159
f 255/387/160 253/385/160 289/386/160 290/388/160
f 257/389/161 255/387/161 290/388/161 291/390/161
f 195/391/162 257/389/162 291/390/162 259/392/162
f 255/393/163 257/394/163 195/395/163 197/396/163 199/397/163 201/398/163 203/399/163 205/400/163 207/401/163 209/402/163 211/403/163 213/404/163 215/405/163 217/406/163 219/407/163 221/408/163 223/409/163 225/410/163 227/411/163 229/412/163 231/413/163 234/414/163 236/415/163 238/416/163 240/417/163 242/418/163 244/419/163 245/420/163 247/421/163 249/422/163 251/423/163 253/424/163
f 196/425/164 260/426/164 198/427/164
f 198/427/165 260/426/165 200/428/165
f 200/428/166 260/426/166 202/429/166
f 202/429/167 260/426/167 204/430/167
f 204/430/168 260/426/168 206/431/168
f 206/431/169 260/426/169 208/432/169
f 208/432/170 260/426/170 210/433/170
f 210/433/171 260/426/171 212/434/171
f 260/426/172 214/435/172 212/434/172
f 260/426/173 216/436/173 214/435/173
f 260/426/174 218/437/174 216/436/174
f 260/426/175 220/438/175 218/437/175
f 260/426/176 222/439/176 220/438/176
f 260/426/177 224/440/177 222/439/177
f 260/426/178 226/441/178 224/440/178
f 260/426/179 228/442/179 226/441/179
f 230/443/180 228/442/180 260/426/180
f 232/444/181 230/443/181 260/426/181
f 233/445/182 232/444/182 260/426/182
f 235/446/183 233/445/183 260/426/183
f 237/447/184 235/446/184 260/426/184
f 239/448/185 237/447/185 260/426/185
f 241/449/186 239/448/186 260/426/186
f 243/450/187 241/449/187 260/426/187
f 246/451/188 243/450/188 260/426/188
f 248/452/189 246/451/189 260/426/189
f 250/453/190 248/452/190 260/426/190
f 252/454/191 250/453/191 260/426/191
f 254/455/192 252/454/192 260/426/192
f 256/456/193 254/455/193 260/426/193
f 258/394/163 196/395/163 198/396/163 200/397/163 202/398/163 204/399/163 206/400/163 208/401/163 210/402/163 212/403/163 214/404/163 216/405/163 218/406/163 220/407/163 222/408/163 224/409/163 226/410/163 275/457/163 274/458/163 273/459/163 272/460/163 271/461/163 270/462/163 269/463/163 268/464/163 267/465/163 266/466/163 265/467/163 264/468/163 263/469/163 262/470/163 261/471/163 259/472/163 291/473/163 290/474/163 289/475/163 288/476/163 287/477/163 286/478/163 285/479/163 284/480/163 283/481/163 241/418/163 243/419/163 246/420/163 248/421/163 250/422/163 252/423/163 254/424/163 256/393/163
f 283/481/163 282/482/163 281/483/163 280/484/163 279/485/163 278/486/163 277/487/163 276/488/163 275/457/163 226/410/163 228/411/163 230/412/163 232/413/163 233/414/163 235/415/163 237/416/163 239/417/163 241/418/163
f 258/489/194 256/456/194 260/426/194
f 258/489/195 260/426/195 196/425/195
o Sphere
v 0.000000 0.196157 0.039018
v -0.017620 0.199956 -0.001642
v 0.000000 0.196157 -0.039018
v -0.014820 0.165262 -0.112558
v 0.003990 0.040506 0.196324
v 0.014009 0.142240 0.140592
v 0.016469 0.167216 0.109694
v 0.016126 0.185071 0.075797
v 0.038268 0.192388 0.039018
v 0.039018 0.196157 0.000000
v 0.038268 0.192388 -0.039018
v 0.011415 0.141256 -0.141743
v 0.032587 0.107424 0.165892
v 0.079015 0.146746 0.111741
v 0.070711 0.170711 0.076537
v 0.076382 0.184401 0.019663
v 0.075066 0.181225 -0.039018
v 0.048775 0.160790 -0.109694
v 0.054120 0.130656 -0.141421
v 0.032975 0.106922 -0.166190
v 0.043599 0.063559 0.184960
v 0.067305 0.124646 0.141861
v 0.111114 0.166294 0.000000
v 0.126132 0.150664 -0.040912
v 0.085722 0.164812 -0.075797
v 0.028625 0.071562 -0.184960
v 0.115835 0.143844 0.078359
v 0.124540 0.151753 0.042559
v 0.141421 0.141421 0.000000
v 0.106550 0.127537 -0.112578
v 0.089149 0.108628 -0.142915
v 0.070551 0.085966 -0.166442
v 0.017807 0.035542 -0.196201
v 0.071480 0.028186 0.185081
v 0.079564 0.078212 0.166937
v 0.108273 0.090341 0.142335
v 0.129384 0.104300 0.112578
v 0.153636 0.102656 0.076537
v 0.166294 0.111114 0.000000
v 0.141207 0.120091 -0.077041
v 0.058774 0.049637 -0.184738
v 0.000000 0.000000 0.200000
v 0.130656 0.054120 0.141421
v 0.176415 0.056912 0.077041
v 0.173651 0.093043 0.039428
v 0.184776 0.076537 0.000000
v 0.173651 0.093043 -0.039428
v 0.148367 0.075989 -0.111595
v 0.124548 0.068555 -0.141214
v 0.098434 0.053201 -0.166190
v 0.075093 0.016277 -0.185081
v 0.106710 0.031696 0.166513
v 0.160341 0.045584 0.111595
v 0.196157 0.039018 0.000000
v 0.192388 0.038268 -0.039018
v 0.176415 0.056912 -0.077041
v 0.037483 0.014305 0.196247
v 0.140769 0.016362 0.141743
v 0.166294 -0.000000 0.111114
v 0.196038 0.019507 0.039428
v 0.200000 -0.000000 0.000000
v 0.166153 0.013427 -0.111595
v 0.140769 0.016362 -0.141743
v 0.110385 -0.012009 0.166732
v 0.184766 -0.014931 0.077041
v 0.192388 -0.038268 0.039018
v 0.196157 -0.039018 0.000000
v 0.196077 -0.019113 -0.039428
v 0.184766 -0.014931 -0.077041
v 0.158644 -0.051179 -0.111595
v 0.111019 -0.001677 -0.167354
v 0.039587 0.007874 -0.196235
v 0.136315 -0.038754 0.141743
v 0.158644 -0.051179 0.111595
v 0.170711 -0.070711 0.076537
v 0.181225 -0.075066 0.039018
v 0.184776 -0.076537 0.000000
v 0.181225 -0.075066 -0.039018
v 0.170711 -0.070711 -0.076537
v 0.136315 -0.038754 -0.141743
v 0.073616 -0.021656 -0.184845
v 0.074013 -0.024273 0.184927
v 0.111108 -0.087969 0.141743
v 0.166294 -0.111114 0.000000
v 0.126983 -0.107994 -0.111595
v 0.117588 -0.078569 -0.141421
v 0.098078 -0.052424 -0.166442
v 0.032719 -0.023218 0.196247
v 0.091306 -0.064350 0.166811
v 0.126983 -0.107994 0.111595
v 0.145332 -0.115065 0.077041
v 0.152413 -0.124826 0.039428
v 0.141421 -0.141421 0.000000
v 0.152413 -0.124826 -0.039428
v 0.145332 -0.115065 -0.077041
v 0.092388 -0.138268 0.111114
v 0.102656 -0.153636 0.076537
v 0.108979 -0.163099 0.039018
v 0.111114 -0.166294 0.000000
v 0.108979 -0.163099 -0.039018
v 0.102656 -0.153636 -0.076537
v 0.092388 -0.138268 -0.111114
v 0.091535 -0.108780 -0.141214
v 0.070782 -0.086248 -0.166446
v 0.055161 -0.053832 -0.184960
v 0.068986 -0.123792 0.141743
v 0.076537 -0.184776 0.000000
v 0.075066 -0.181225 -0.039018
v 0.036811 -0.067507 0.185296
v 0.040167 -0.104232 0.166811
v 0.027590 -0.138704 0.141421
v 0.045584 -0.160341 0.111595
v 0.056912 -0.176415 0.077041
v 0.057377 -0.188466 0.039428
v 0.039018 -0.196157 0.000000
v 0.056912 -0.176415 -0.077041
v 0.045584 -0.160341 -0.111595
v 0.043510 -0.134872 -0.141743
v 0.030458 -0.107137 -0.166440
v 0.023367 -0.073295 -0.184738
v -0.007539 -0.076546 0.184815
v -0.000000 -0.196157 0.039018
v -0.000000 -0.200000 0.000000
v 0.019507 -0.196038 -0.039428
v -0.012391 -0.111007 0.166192
v -0.011415 -0.141256 0.141743
v -0.019246 -0.165580 0.111595
v -0.014931 -0.184766 0.077041
v -0.039018 -0.196157 0.000000
v -0.014931 -0.184766 -0.077040
v -0.019246 -0.165580 -0.111595
v -0.011415 -0.141256 -0.141743
v -0.024511 -0.108982 -0.166811
v 0.019143 -0.035815 -0.196615
v -0.056998 -0.188581 0.039428
v -0.076537 -0.184776 0.000000
v -0.056998 -0.188581 -0.039428
v -0.070711 -0.170711 -0.076537
v -0.013166 -0.076027 -0.184910
v -0.005138 -0.040133 0.196327
v -0.053043 -0.097868 0.166513
v -0.064603 -0.126135 0.141743
v -0.081146 -0.145611 0.111595
v -0.084501 -0.164987 0.077041
v -0.111114 -0.166294 0.000000
v -0.108979 -0.163099 -0.039018
v -0.081146 -0.145611 -0.111595
v -0.064603 -0.126135 -0.141743
v -0.047908 -0.059785 -0.184907
v -0.086458 -0.070120 0.166513
v -0.124826 -0.152413 0.039428
v -0.141421 -0.141421 0.000000
v -0.115065 -0.145332 -0.077041
v -0.100000 -0.100000 -0.141421
v 0.000000 0.000000 -0.200000
v -0.050749 -0.059091 0.184927
v -0.109606 -0.090931 0.141211
v -0.130478 -0.104538 0.110711
v -0.141207 -0.120091 0.077041
v -0.173651 -0.093043 0.039428
v -0.166294 -0.111114 0.000000
v -0.152162 -0.125132 -0.039428
v -0.153635 -0.102656 -0.076537
v -0.130692 -0.103474 -0.111595
v -0.080927 -0.076997 -0.166811
v -0.070843 -0.030361 -0.184960
v -0.134603 -0.042029 0.142335
v -0.153635 -0.063638 0.111114
v -0.170711 -0.070711 0.076537
v -0.184776 -0.076537 0.000000
v -0.160341 -0.045584 -0.111595
v -0.123792 -0.068986 -0.141743
v -0.035542 -0.017807 0.196201
v -0.106578 -0.031148 0.166732
v -0.192388 -0.038268 0.039018
v -0.196157 -0.039018 0.000000
v -0.188466 -0.057377 -0.039428
v -0.176415 -0.056912 -0.077041
v -0.138704 -0.027590 -0.141421
v -0.107137 -0.030458 -0.166440
v -0.030515 -0.026569 -0.196327
v -0.075087 -0.015549 0.185055
v -0.141256 0.011415 0.141743
v -0.166153 -0.013427 0.111595
v -0.184128 -0.021401 0.077041
v -0.200000 0.000000 0.000000
v -0.196157 0.000000 -0.039018
v -0.166294 0.000000 -0.111114
v -0.141256 0.011415 -0.141743
v -0.196077 0.019113 0.039428
v -0.196157 0.039018 0.000000
v -0.184766 0.014931 -0.077041
v -0.076427 0.006878 -0.184845
v -0.073605 0.022328 0.184815
v -0.109689 0.023908 0.166370
v -0.158644 0.051179 0.111595
v -0.178302 0.050690 0.077041
v -0.181225 0.075066 0.039018
v -0.184776 0.076537 0.000000
v -0.188581 0.056998 -0.039428
v -0.158644 0.051179 -0.111595
v -0.126135 0.064603 -0.141743
v -0.109689 0.023908 -0.166370
v -0.035482 0.018966 0.196330
v -0.126135 0.064603 0.141743
v -0.138268 0.092388 0.111114
v -0.153635 0.102656 0.076537
v -0.163099 0.108979 0.039018
v -0.166294 0.111114 0.000000
v -0.152413 0.124826 -0.039428
v -0.164987 0.084501 -0.077041
v -0.038333 0.010531 -0.196201
v -0.100000 0.100000 0.141421
v -0.103474 0.130692 0.111595
v -0.141421 0.141421 0.000000
v -0.126983 0.107994 -0.111595
v -0.077316 0.079688 -0.167354
v -0.064603 0.042036 -0.184960
v -0.053186 0.055900 0.184910
v -0.078211 0.079564 0.166937
v -0.120091 0.141207 0.077041
v -0.125132 0.152162 0.039428
v -0.111114 0.166294 0.000000
v -0.108979 0.163099 -0.039018
v -0.120091 0.141207 -0.077041
v -0.091811 0.107955 -0.141743
v -0.068986 0.123792 0.141743
v -0.055155 0.176571 0.078384
v -0.076537 0.184776 0.000000
v -0.075989 0.148367 -0.111595
v -0.020556 0.108932 -0.167260
v -0.021503 0.108106 0.167758
v -0.027590 0.138704 0.141421
v -0.046776 0.159195 0.112558
v -0.057377 0.188466 0.039428
v -0.057378 0.188466 -0.039428
v -0.055155 0.176571 -0.078384
v -0.043510 0.134872 -0.141743
v -0.005899 0.077668 0.184927
v 0.017800 0.184532 -0.077178
v -0.023516 0.073733 -0.185184
v -0.016389 0.036620 -0.196247
vn 0.0361 0.5050 0.8624
vn 0.0832 0.8409 -0.5347
vn 0.0384 0.5955 -0.8024
vn 0.0949 0.9639 0.2489
vn 0.0046 0.1040 -0.9946
vn 0.0888 0.3136 0.9454
vn 0.1944 0.6424 0.7413
vn 0.1856 0.7279 -0.6601
vn 0.2515 0.9629 0.0978
vn 0.4496 0.7842 0.4277
vn 0.2535 0.4384 0.8623
vn 0.4035 0.7469 -0.5285
vn 0.5770 0.7262 -0.3738
vn 0.4222 0.5145 0.7463
vn 0.2698 0.3619 -0.8923
vn 0.6331 0.7714 0.0638
vn 0.0676 0.0836 0.9942
vn 0.2117 0.1678 -0.9628
vn 0.0816 0.0654 -0.9945
vn 0.2359 0.1892 0.9532
vn 0.6613 0.5262 -0.5346
vn 0.6755 0.6010 0.4271
vn 0.4329 0.2447 0.8676
vn 0.3995 0.2046 -0.8936
vn 0.8808 0.4708 0.0514
vn 0.8101 0.4514 -0.3741
vn 0.9363 0.2851 0.2050
vn 0.8139 0.2314 -0.5329
vn 0.6294 0.1750 0.7571
vn 0.7894 0.0967 0.6062
vn 0.9939 0.0979 0.0514
vn 0.3076 0.0121 0.9514
vn 0.1046 -0.0133 0.9944
vn 0.8405 -0.0977 -0.5329
vn 0.6637 -0.0536 0.7461
vn 0.4333 -0.0225 -0.9010
vn 0.9704 -0.0630 0.2332
vn 0.5755 -0.1612 -0.8017
vn 0.8761 -0.2246 0.4267
vn 0.2353 -0.1017 -0.9666
vn 0.1023 -0.0392 -0.9940
vn 0.4873 -0.1763 0.8552
vn 0.5891 -0.3017 0.7496
vn 0.3924 -0.2219 -0.8926
vn 0.5648 -0.4916 -0.6629
vn 0.0290 0.4588 -0.8881
vn 0.7720 -0.6336 0.0514
vn 0.2535 -0.2101 0.9443
vn 0.3148 -0.4036 0.8591
vn 0.0454 -0.0968 0.9943
vn 0.3452 -0.7188 0.6035
vn 0.2209 -0.6294 0.7450
vn 0.2899 -0.9557 0.0514
vn 0.0517 -0.3041 0.9512
vn 0.1071 -0.9212 -0.3741
vn -0.1263 -0.9628 0.2389
vn -0.0506 -0.2414 -0.9691
vn -0.2899 -0.9557 0.0514
vn -0.0258 -0.1077 -0.9938
vn -0.1157 -0.2925 0.9493
vn -0.2318 -0.9072 -0.3512
vn -0.2888 -0.5095 -0.8106
vn -0.4605 -0.8637 0.2050
vn -0.6336 -0.7720 0.0514
vn -0.0649 -0.0827 0.9945
vn -0.3240 -0.3901 0.8619
vn -0.5482 -0.6446 -0.5329
vn -0.5913 -0.4605 -0.6621
vn -0.3488 -0.2734 -0.8964
vn -0.7560 -0.6217 0.2050
vn -0.6967 -0.6255 -0.3512
vn -0.8808 -0.4708 0.0514
vn -0.2762 -0.1572 0.9482
vn -0.5230 -0.2881 -0.8022
vn -0.7062 -0.2492 -0.6627
vn -0.7702 -0.1978 0.6064
vn -0.1046 -0.0033 0.9945
vn -0.1036 -0.0185 -0.9944
vn -0.4945 -0.0222 0.8689
vn -0.9689 -0.0640 0.2389
vn -0.8041 0.0935 0.5871
vn -0.9939 0.0979 0.0514
vn -0.2877 0.0173 0.9576
vn -0.8492 0.1221 -0.5138
vn -0.8920 0.2536 -0.3741
vn -0.6489 0.1845 0.7382
vn -0.7095 0.2017 -0.6752
vn -0.4250 0.1400 -0.8943
vn -0.9395 0.2511 0.2332
vn -0.5127 0.2833 -0.8105
vn -0.2721 0.1628 0.9484
vn -0.7391 0.4119 -0.5329
vn -0.7101 0.3582 0.6062
vn -0.7271 0.5757 -0.3741
vn -0.5210 0.3915 0.7585
vn -0.5783 0.4579 -0.6752
vn -0.2062 0.1718 -0.9633
vn -0.0805 0.0659 -0.9946
vn -0.2629 0.3344 -0.9050
vn -0.6336 0.7720 0.0514
vn -0.5253 0.6634 -0.5329
vn -0.4029 0.5150 0.7566
vn -0.3591 0.6443 -0.6752
vn -0.3710 0.7181 0.5888
vn -0.0519 0.0953 0.9941
vn -0.2486 0.9681 0.0302
vn -0.2318 0.8084 -0.5411
vn -0.2146 0.6123 0.7609
vn -0.0398 0.6473 0.7612
vn -0.0849 0.7307 -0.6774
vn -0.1300 0.9784 -0.1607
vn 0.0351 0.5997 0.7994
vn 0.0831 0.8050 -0.5875
vn 0.0140 0.2910 -0.9566
vn 0.0779 0.9939 0.0779
vn 0.0806 0.9935 -0.0806
vn 0.3123 0.9471 -0.0739
vn 0.0949 0.9638 -0.2493
vn 0.2711 0.9047 -0.3285
vn 0.2268 0.7449 0.6274
vn 0.1194 0.4209 0.8992
vn 0.2638 0.8813 -0.3921
vn 0.2394 0.8436 0.4806
vn 0.1641 0.6385 -0.7519
vn 0.2787 0.9161 0.2883
vn 0.3059 0.5483 -0.7784
vn 0.4664 0.8427 0.2688
vn 0.2356 0.4329 -0.8701
vn 0.4717 0.8760 -0.1005
vn 0.5143 0.8481 0.1275
vn 0.3808 0.6881 -0.6177
vn 0.4933 0.8386 -0.2313
vn 0.3014 0.5135 0.8034
vn 0.4938 0.5984 0.6310
vn 0.5685 0.7165 -0.4043
vn 0.7323 0.6235 0.2739
vn 0.5383 0.6493 0.5373
vn 0.1832 0.2423 -0.9527
vn 0.6332 0.7715 -0.0623
vn 0.1599 0.2016 0.9663
vn 0.3786 0.3155 -0.8701
vn 0.7631 0.6290 0.1480
vn 0.7651 0.6275 -0.1445
vn 0.6030 0.4897 -0.6297
vn 0.7573 0.6191 -0.2080
vn 0.3405 0.2715 0.9002
vn 0.4910 0.4059 -0.7708
vn 0.5376 0.3091 0.7845
vn 0.7995 0.4455 -0.4030
vn 0.6885 0.3744 0.6211
vn 0.7731 0.3954 0.4959
vn 0.9465 0.2878 0.1459
vn 0.8392 0.4217 0.3434
vn 0.2664 0.1401 -0.9536
vn 0.8808 0.4708 -0.0514
vn 0.9442 0.3076 -0.1175
vn 0.7442 0.2234 -0.6295
vn 0.9206 0.3132 -0.2332
vn 0.6017 0.1742 -0.7795
vn 0.7225 0.1991 0.6621
vn 0.8904 0.1066 0.4426
vn 0.4905 0.1307 -0.8616
vn 0.9091 0.1057 -0.4030
vn 0.6033 0.0547 0.7956
vn 0.9901 0.0779 -0.1168
vn 0.9212 0.1071 0.3741
vn 0.9452 0.0891 -0.3141
vn 0.4514 0.0297 0.8918
vn 0.9901 -0.0771 0.1175
vn 0.3035 -0.0177 -0.9527
vn 0.7722 -0.0772 -0.6307
vn 0.9939 -0.0979 -0.0514
vn 0.2634 -0.0334 0.9641
vn 0.7632 -0.0840 0.6407
vn 0.9162 -0.2513 0.3121
vn 0.6701 -0.0542 -0.7403
vn 0.8492 -0.1221 0.5138
vn 0.5623 -0.2037 0.8015
vn 0.4790 -0.1377 -0.8669
vn 0.9524 -0.2889 0.0975
vn 0.9560 -0.2688 -0.1175
vn 0.9242 -0.2415 -0.2959
vn 0.8665 -0.4853 0.1168
vn 0.8761 -0.2246 -0.4267
vn 0.8665 -0.4853 -0.1168
vn 0.8320 -0.4763 -0.2844
vn 0.7585 -0.4252 -0.4939
vn 0.6941 -0.3640 -0.6211
vn 0.6839 -0.3668 0.6307
vn 0.7585 -0.4252 0.4939
vn 0.5898 -0.2835 -0.7561
vn 0.8320 -0.4763 0.2844
vn 0.4820 -0.4040 -0.7775
vn 0.2429 -0.1359 -0.9605
vn 0.6455 -0.7546 -0.1175
vn 0.3851 -0.3107 -0.8690
vn 0.7720 -0.6336 -0.0514
vn 0.3233 -0.2704 0.9068
vn 0.6342 -0.7143 -0.2959
vn 0.5876 -0.6661 -0.4594
vn 0.3880 -0.4780 0.7880
vn 0.4947 -0.5788 0.6483
vn 0.5193 -0.6030 -0.6055
vn 0.5876 -0.6661 0.4594
vn 0.6342 -0.7143 0.2959
vn 0.6455 -0.7546 0.1175
vn 0.3030 -0.5612 -0.7702
vn 0.3869 -0.7878 0.4792
vn 0.2278 -0.4121 -0.8822
vn 0.4272 -0.8583 0.2844
vn 0.4508 -0.8849 0.1168
vn 0.1654 -0.2809 -0.9454
vn 0.4691 -0.8777 -0.0975
vn 0.4370 -0.8473 -0.3017
vn 0.1046 -0.2296 0.9676
vn 0.3869 -0.7878 -0.4792
vn 0.3535 -0.6825 -0.6397
vn 0.2695 -0.9559 -0.1168
vn 0.2518 -0.9378 -0.2389
vn 0.2492 -0.7062 0.6627
vn 0.0874 -0.8792 0.4684
vn 0.0292 -0.4797 -0.8769
vn 0.1159 -0.9418 0.3155
vn 0.1175 -0.9861 0.1175
vn 0.0269 -0.2992 -0.9538
vn 0.0654 -0.4623 0.8843
vn 0.0979 -0.9939 -0.0514
vn 0.0874 -0.8792 -0.4684
vn 0.0602 -0.6158 0.7856
vn 0.0750 -0.7724 -0.6307
vn 0.0610 -0.7872 0.6136
vn 0.0494 -0.6247 -0.7793
vn -0.1168 -0.9863 0.1168
vn -0.0950 -0.9741 -0.2050
vn -0.0963 -0.9846 -0.1459
vn -0.1537 -0.4339 0.8877
vn -0.2536 -0.8920 0.3741
vn -0.2899 -0.9557 -0.0514
vn -0.2451 -0.8407 -0.4829
vn -0.1821 -0.6134 0.7685
vn -0.2263 -0.7423 -0.6307
vn -0.2263 -0.7423 0.6307
vn -0.2557 -0.8457 0.4684
vn -0.1844 -0.6485 -0.7386
vn -0.2273 -0.4296 -0.8740
vn -0.4447 -0.7857 -0.4301
vn -0.4658 -0.8728 0.1459
vn -0.1236 -0.2642 -0.9565
vn -0.4502 -0.8852 -0.1175
vn -0.4474 -0.8479 -0.2843
vn -0.6451 -0.7552 -0.1168
vn -0.5757 -0.7271 0.3741
vn -0.4044 -0.4972 0.7676
vn -0.1556 -0.2065 0.9660
vn -0.6399 -0.7304 -0.2389
vn -0.4924 -0.6097 -0.6211
vn -0.4935 -0.5986 0.6310
vn -0.5594 -0.6852 0.4663
vn -0.3893 -0.5179 -0.7617
vn -0.7643 -0.6281 0.1459
vn -0.6735 -0.6036 -0.4267
vn -0.5169 -0.4043 -0.7546
vn -0.2490 -0.1957 -0.9485
vn -0.8722 -0.4669 -0.1459
vn -0.7720 -0.6336 -0.0514
vn -0.8564 -0.4470 -0.2585
vn -0.3998 -0.2191 0.8900
vn -0.7749 -0.3944 -0.4939
vn -0.5622 -0.3004 0.7705
vn -0.6696 -0.3700 0.6440
vn -0.7205 -0.3690 -0.5871
vn -0.7669 -0.4468 0.4606
vn -0.8482 -0.2258 0.4792
vn -0.4406 -0.2412 -0.8647
vn -0.8053 -0.4776 0.3512
vn -0.6184 -0.2169 -0.7554
vn -0.9159 -0.2832 0.2843
vn -0.9442 -0.3076 0.1175
vn -0.9861 -0.1175 -0.1175
vn -0.9557 -0.2899 -0.0514
vn -0.9418 -0.1159 -0.3155
vn -0.2714 -0.0029 0.9625
vn -0.8904 -0.1066 -0.4426
vn -0.6230 -0.0492 0.7807
vn -0.7709 -0.0763 -0.6323
vn -0.6144 -0.0357 -0.7882
vn -0.7333 -0.0838 0.6747
vn -0.4769 -0.0406 -0.8780
vn -0.2740 -0.0463 -0.9606
vn -0.9901 -0.0779 0.1168
vn -0.8794 0.0858 0.4684
vn -0.9863 0.1168 -0.1168
vn -0.9244 0.0747 0.3741
vn -0.9560 0.2688 0.1175
vn -0.9628 0.1263 -0.2389
vn -0.4542 0.0234 0.8906
vn -0.7894 0.1123 -0.6035
vn -0.9557 0.2899 -0.0514
vn -0.8803 0.2503 -0.4030
vn -0.7095 0.2017 0.6752
vn -0.6489 0.1845 -0.7382
vn -0.2928 0.0954 -0.9514
vn -0.7978 0.3905 0.4594
vn -0.8496 0.4252 0.3121
vn -0.4527 0.2476 -0.8566
vn -0.8777 0.4691 0.0975
vn -0.8728 0.4658 -0.1459
vn -0.4223 0.2391 0.8744
vn -0.8637 0.4605 -0.2050
vn -0.5983 0.4932 0.6315
vn -0.5140 0.2824 0.8100
vn -0.7071 0.3941 -0.5871
vn -0.7175 0.5681 -0.4030
vn -0.6590 0.5798 0.4792
vn -0.5199 0.4116 -0.7485
vn -0.7231 0.6295 0.2844
vn -0.7552 0.6451 0.1168
vn -0.6455 0.7546 -0.1175
vn -0.7720 0.6336 -0.0514
vn -0.1947 0.2457 -0.9496
vn -0.4420 0.8390 -0.3172
vn -0.6416 0.7307 -0.2332
vn -0.5025 0.6347 -0.5871
vn -0.4605 0.5913 0.6621
vn -0.2091 0.4174 0.8843
vn -0.2897 0.5432 -0.7881
vn -0.4445 0.8009 -0.4013
vn -0.2727 0.5185 0.8104
vn -0.4178 0.7788 0.4680
vn -0.4565 0.8398 0.2939
vn -0.2339 0.4567 -0.8583
vn -0.4669 0.8722 0.1459
vn -0.4508 0.8849 -0.1168
vn -0.1246 0.2493 0.9604
vn -0.0649 0.7853 0.6157
vn -0.2502 0.9677 -0.0310
vn -0.2238 0.7767 -0.5888
vn -0.2485 0.7042 0.6651
vn -0.0923 0.9077 -0.4093
vn -0.0891 0.8799 0.4668
vn -0.0771 0.6637 -0.7440
vn -0.1114 0.9431 0.3132
vn -0.1093 0.9425 -0.3158
vn -0.1304 0.9803 0.1481
vt 0.781230 0.812500
vt 0.762032 0.875000
vt 0.703125 0.812500
vt 0.734697 0.375000
vt 0.703125 0.312500
vt 0.764235 0.312500
vt 0.737176 0.250000
vt 0.702383 0.187500
vt 0.779637 0.187500
vt 0.750000 0.562500
vt 0.736180 0.625000
vt 0.718750 0.562500
vt 0.734375 0.000000
vt 0.816771 0.062500
vt 0.676127 0.062500
vt 0.734224 0.937500
vt 0.654234 0.875000
vt 0.671198 0.750000
vt 0.734375 0.750000
vt 0.687500 0.250000
vt 0.687500 0.531257
vt 0.718750 0.500000
vt 0.671386 0.687500
vt 0.642102 0.625000
vt 0.687500 0.625000
vt 0.623673 0.812500
vt 0.673680 0.375000
vt 0.639230 0.312500
vt 0.639064 0.437500
vt 0.612180 0.375000
vt 0.610667 0.750000
vt 0.640625 0.187500
vt 0.611633 0.125000
vt 0.689378 0.125000
vt 0.656250 0.500000
vt 0.640625 0.562500
vt 0.625000 0.500000
vt 0.640625 1.000000
vt 0.557796 0.937500
vt 0.531430 0.062500
vt 0.609375 0.000000
vt 0.559713 0.875000
vt 0.575323 0.312500
vt 0.607980 0.687500
vt 0.593750 0.625000
vt 0.545949 0.812500
vt 0.578867 0.187500
vt 0.533930 0.125000
vt 0.593750 0.500000
vt 0.578286 0.562500
vt 0.562500 0.500000
vt 0.578286 0.437500
vt 0.549680 0.375000
vt 0.549680 0.625000
vt 0.515786 0.562500
vt 0.512823 0.312500
vt 0.518426 0.750000
vt 0.562500 0.750000
vt 0.544073 0.687500
vt 0.500000 0.687500
vt 0.531250 0.500000
vt 0.500000 0.500000
vt 0.449506 0.875000
vt 0.484375 1.000000
vt 0.401546 0.937500
vt 0.487180 0.375000
vt 0.450323 0.312500
vt 0.482751 0.812500
vt 0.455926 0.750000
vt 0.497588 0.187500
vt 0.454470 0.125000
vt 0.487180 0.625000
vt 0.468750 0.562500
vt 0.455926 0.250000
vt 0.421875 0.187500
vt 0.450323 0.687500
vt 0.437500 0.625000
vt 0.328120 0.062500
vt 0.453125 0.000000
vt 0.402284 0.812500
vt 0.393426 0.750000
vt 0.376866 0.125000
vt 0.387823 0.312500
vt 0.361346 0.250000
vt 0.406250 0.250000
vt 0.799126 0.125000
vt 0.406250 0.500000
vt 0.390786 0.562500
vt 0.375000 0.500000
vt 0.329445 0.875000
vt 0.308534 0.812500
vt 0.328125 1.000000
vt 0.230145 0.937500
vt 0.343750 0.687500
vt 0.330926 0.750000
vt 0.294073 0.687500
vt 0.281250 0.750000
vt 0.312500 0.500000
vt 0.297036 0.562500
vt 0.281250 0.500000
vt 0.234375 0.875000
vt 0.265786 0.437500
vt 0.237180 0.375000
vt 0.299679 0.375000
vt 0.250000 0.562500
vt 0.237180 0.625000
vt 0.203286 0.562500
vt 0.222691 0.125000
vt 0.113605 0.062500
vt 0.218750 0.500000
vt 0.187500 0.500000
vt 0.203125 0.000000
vt 0.137012 0.875000
vt 0.203286 0.437500
vt 0.187500 0.375000
vt 0.214815 0.187500
vt 0.174676 0.250000
vt 0.121065 0.187500
vt 0.174680 0.625000
vt 0.140786 0.562500
vt 0.156250 0.500000
vt 0.125000 0.500000
vt 0.140625 1.000000
vt 0.073873 0.937500
vt 0.108450 0.812500
vt 0.170949 0.812500
vt 0.169073 0.312500
vt 0.143430 0.375000
vt 0.106573 0.312500
vt 0.080926 0.250000
vt 0.125000 0.250000
vt 0.064393 0.125000
vt 0.142487 0.125000
vt 0.112179 0.625000
vt 0.078286 0.562500
vt 0.109536 0.437500
vt 0.093750 0.375000
vt 0.093750 0.500000
vt 0.062500 0.500000
vt 0.032456 0.875000
vt 0.044073 0.187500
vt 0.044073 0.312500
vt 0.031250 0.250000
vt 0.062500 0.687500
vt 0.048167 0.750000
vt 0.012823 0.687500
vt 0.015625 1.000000
vt 0.000000 0.937500
vt 0.015625 0.000000
vt 0.000000 0.062500
vt 0.045251 0.812500
vt 0.000000 0.812500
vt 0.031250 0.562500
vt 0.018429 0.625000
vt 0.000000 0.562500
vt 1.000000 0.687500
vt 0.987176 0.750000
vt 0.950323 0.687500
vt 1.000000 0.500000
vt 0.984536 0.562500
vt 0.968750 0.500000
vt 0.921769 0.937500
vt 0.953125 0.875000
vt 1.000000 0.875000
vt 1.000000 0.312500
vt 0.987180 0.375000
vt 0.950323 0.312500
vt 0.953286 0.437500
vt 0.924679 0.375000
vt 0.965747 0.812500
vt 0.924676 0.750000
vt 0.924676 0.250000
vt 0.987176 0.250000
vt 0.965747 0.187500
vt 0.908128 0.125000
vt 0.985720 0.125000
vt 0.955930 0.625000
vt 0.937500 0.562500
vt 0.872588 0.187500
vt 0.871079 0.875000
vt 0.887823 0.312500
vt 0.906250 0.687500
vt 0.890786 0.437500
vt 0.862180 0.375000
vt 0.873622 0.812500
vt 0.875000 0.750000
vt 0.862176 0.250000
vt 0.957377 0.062500
vt 0.890625 0.000000
vt 0.875000 0.500000
vt 0.859536 0.562500
vt 0.843750 0.500000
vt 0.825323 0.312500
vt 0.830926 0.750000
vt 0.799676 0.250000
vt 0.856573 0.687500
vt 0.795485 0.687500
vt 0.828125 1.000000
vt 0.812500 0.500000
vt 0.797036 0.562500
vt 0.763980 0.500000
vt 0.798190 0.375000
vt 0.781250 0.750000
vt 0.750000 0.437500
vt 0.797036 0.437500
vt 0.718750 0.437500
vt 0.687500 0.437500
vt 0.734375 0.687500
vt 0.640625 0.250000
vt 0.580096 0.250000
vt 0.531250 0.437500
vt 0.518426 0.250000
vt 0.484536 0.437500
vt 0.468750 0.500000
vt 0.437500 0.562500
vt 0.437500 0.500000
vt 0.437500 0.437500
vt 0.437500 0.375000
vt 0.390786 0.437500
vt 0.393429 0.375000
vt 0.387823 0.687500
vt 0.393429 0.625000
vt 0.359375 0.187500
vt 0.343750 0.437500
vt 0.343750 0.500000
vt 0.343750 0.375000
vt 0.343750 0.312500
vt 0.343750 0.625000
vt 0.343750 0.562500
vt 0.299676 0.250000
vt 0.294073 0.187500
vt 0.299680 0.625000
vt 0.299133 0.125000
vt 0.312500 0.437500
vt 0.294073 0.312500
vt 0.231573 0.687500
vt 0.250000 0.500000
vt 0.232294 0.812500
vt 0.231573 0.312500
vt 0.237176 0.750000
vt 0.237176 0.250000
vt 0.174676 0.750000
vt 0.169073 0.687500
vt 0.156250 0.437500
vt 0.110229 0.750000
vt 0.107491 0.687500
vt 0.047036 0.437500
vt 0.049680 0.375000
vt 0.062500 0.625000
vt 0.031250 0.500000
vt 0.000000 0.437500
vt 0.000000 0.500000
vt 0.000000 0.375000
vt 0.000000 0.312500
vt 0.000000 0.750000
vt 0.000000 0.250000
vt 0.000000 0.187500
vt 0.000000 0.125000
vt 1.000000 0.625000
vt 1.000000 0.437500
vt 0.937500 0.500000
vt 0.906250 0.625000
vt 0.906250 0.562500
vt 0.906250 0.500000
vt 0.862179 0.625000
vt 0.843750 0.437500
vt 0.798190 0.625000
s 0
usemtl Material.004
f 523/490/196 530/491/196 304/492/196
f 531/493/197 309/494/197 295/495/197
f 303/496/198 311/497/198 522/498/198
f 292/499/199 299/500/199 300/501/199
f 446/502/200 533/503/200 324/504/200
f 296/505/201 312/506/201 530/491/201
f 304/492/202 313/507/202 297/508/202
f 309/494/203 310/509/203 303/496/203
f 300/501/204 307/510/204 301/511/204
f 305/512/205 318/513/205 306/514/205
f 312/506/206 326/515/206 304/492/206
f 309/494/207 316/516/207 321/517/207
f 315/518/208 331/519/208 316/516/208
f 326/515/209 327/520/209 313/507/209
f 323/521/210 332/522/210 317/523/210
f 314/524/211 319/525/211 320/526/211
f 296/505/212 333/527/212 348/528/212
f 332/522/213 363/529/213 324/504/213
f 446/530/214 324/504/214 363/529/214
f 348/528/215 325/531/215 312/506/215
f 321/517/216 331/519/216 339/532/216
f 328/533/217 329/534/217 318/513/217
f 325/531/218 343/535/218 326/515/218
f 341/536/219 342/537/219 332/522/219
f 330/538/220 336/539/220 337/540/220
f 338/541/221 347/542/221 331/519/221
f 336/539/222 335/543/222 351/544/222
f 339/532/223 347/542/223 353/545/223
f 343/535/224 349/546/224 334/547/224
f 344/548/225 349/546/225 350/549/225
f 345/550/226 351/544/226 352/551/226
f 325/531/227 348/528/227 373/552/227
f 348/528/228 333/553/228 379/554/228
f 353/545/229 360/555/229 361/556/229
f 355/557/230 364/558/230 349/546/230
f 362/559/231 372/560/231 342/537/231
f 351/544/232 356/561/232 357/562/232
f 362/559/233 371/563/233 378/564/233
f 365/565/234 366/566/234 356/561/234
f 363/529/235 372/560/235 425/567/235
f 446/568/236 363/529/236 425/567/236
f 355/557/237 373/552/237 380/569/237
f 380/569/238 374/570/238 364/558/238
f 378/564/239 396/571/239 372/560/239
f 376/572/240 394/573/240 377/574/240
f 317/523/241 532/575/241 522/498/241 311/497/241
f 375/576/242 383/577/242 384/578/242
f 379/554/243 400/579/243 373/552/243
f 380/569/244 400/579/244 401/580/244
f 379/554/245 333/581/245 431/582/245
f 387/583/246 397/584/246 403/585/246
f 401/580/247 402/586/247 397/584/247
f 398/587/248 405/588/248 406/589/248
f 431/582/249 412/590/249 400/579/249
f 415/591/250 421/592/250 407/593/250
f 413/594/251 419/595/251 426/596/251
f 430/597/252 472/598/252 425/567/252
f 420/599/253 426/596/253 427/600/253
f 446/601/254 425/567/254 472/598/254
f 412/590/255 431/582/255 447/602/255
f 428/603/256 429/604/256 421/592/256
f 424/605/257 439/606/257 456/607/257
f 426/596/258 435/608/258 442/609/258
f 436/610/259 442/609/259 443/611/259
f 431/582/260 333/612/260 464/613/260
f 447/602/261 441/614/261 432/615/261
f 438/616/262 444/617/262 455/618/262
f 455/618/263 463/619/263 445/620/263
f 456/607/264 457/621/264 440/622/264
f 442/609/265 450/623/265 451/624/265
f 453/625/266 454/626/266 444/617/266
f 452/627/267 451/624/267 461/628/267
f 464/613/268 473/629/268 447/602/268
f 456/607/269 463/619/269 471/630/269
f 462/631/270 470/632/270 463/619/270
f 459/633/271 458/634/271 475/635/271
f 464/613/272 333/636/272 495/637/272
f 446/638/273 472/598/273 503/639/273
f 465/640/274 473/629/274 486/641/274
f 466/642/275 476/643/275 481/644/275
f 475/645/276 474/646/276 487/647/276
f 477/648/277 481/649/277 482/650/277
f 495/651/278 485/652/278 473/653/278
f 479/654/279 483/655/279 492/656/279
f 491/657/280 502/658/280 483/655/280
f 486/659/281 496/660/281 474/646/281
f 492/656/282 493/661/282 480/662/282
f 494/663/283 509/664/283 484/665/283
f 481/649/284 488/666/284 489/667/284
f 494/663/285 493/661/285 508/668/285
f 485/652/286 495/651/286 510/669/286
f 492/656/287 502/658/287 507/670/287
f 487/647/288 496/660/288 497/671/288
f 501/672/289 516/673/289 502/658/289
f 511/674/290 504/675/290 496/660/290
f 507/670/291 517/676/291 493/661/291
f 509/664/292 533/503/292 503/677/292
f 446/678/293 503/677/293 533/503/293
f 508/668/294 532/575/294 509/664/294
f 506/679/295 513/680/295 514/681/295
f 507/670/296 516/673/296 521/682/296
f 511/674/297 518/683/297 504/675/297
f 521/682/298 529/684/298 517/676/298
f 505/685/299 518/683/299 525/686/299
f 495/651/300 333/687/300 296/505/300
f 520/688/301 526/689/301 293/690/301
f 521/682/302 528/691/302 295/495/302
f 523/490/303 524/692/303 518/683/303
f 524/692/304 523/490/304 297/508/304
f 295/495/305 303/496/305 529/684/305
f 293/690/306 294/693/306 527/694/306
f 297/508/307 523/490/307 304/492/307
f 295/495/308 309/494/308 303/496/308
f 324/504/309 533/503/309 532/575/309 317/523/309
f 301/511/310 293/690/310 292/499/310 300/501/310
f 302/695/311 294/693/311 293/690/311 301/511/311
f 308/696/312 302/695/312 301/511/312 307/510/312
f 294/693/313 302/695/313 531/493/313
f 316/516/314 531/493/314 302/695/314 308/696/314
f 305/512/315 298/697/315 297/508/315 313/507/315
f 530/491/316 312/506/316 304/492/316
f 531/493/317 316/516/317 309/494/317
f 306/514/318 299/500/318 298/697/318 305/512/318
f 311/497/319 303/496/319 310/509/319
f 306/514/320 307/510/320 300/501/320 299/500/320
f 322/698/321 323/521/321 311/497/321 310/509/321
f 319/525/322 307/510/322 306/514/322 318/513/322
f 311/497/323 323/521/323 317/523/323
f 314/524/324 315/518/324 308/696/324 307/510/324
f 307/510/325 319/525/325 314/524/325
f 321/517/326 322/698/326 310/509/326 309/494/326
f 308/696/327 315/518/327 316/516/327
f 304/492/328 326/515/328 313/507/328
f 328/533/329 305/512/329 313/507/329 327/520/329
f 321/517/330 316/516/330 331/519/330
f 329/534/331 336/539/331 319/525/331 318/513/331
f 305/512/332 328/533/332 318/513/332
f 317/523/333 332/522/333 324/504/333
f 314/524/334 320/526/334 315/518/334
f 296/505/335 348/528/335 312/506/335
f 332/522/336 323/521/336 341/536/336
f 336/539/337 330/538/337 320/526/337 319/525/337
f 338/541/338 315/518/338 320/526/338 330/538/338
f 340/699/339 322/698/339 321/517/339 339/532/339
f 315/518/340 338/541/340 331/519/340
f 312/506/341 325/531/341 326/515/341
f 341/536/342 323/521/342 322/698/342 340/699/342
f 334/547/343 327/520/343 326/515/343 343/535/343
f 339/532/344 331/519/344 347/542/344
f 334/547/345 344/548/345 328/533/345 327/520/345
f 335/543/346 329/534/346 328/533/346 344/548/346
f 351/544/347 345/550/347 337/540/347 336/539/347
f 336/539/348 329/534/348 335/543/348
f 363/529/349 332/522/349 342/537/349
f 330/538/350 337/540/350 338/541/350
f 346/700/351 338/541/351 337/540/351 345/550/351
f 354/701/352 340/699/352 339/532/352 353/545/352
f 338/541/353 346/700/353 347/542/353
f 354/701/354 362/559/354 341/536/354 340/699/354
f 344/548/355 334/547/355 349/546/355
f 356/561/356 335/543/356 344/548/356 350/549/356
f 342/537/357 341/536/357 362/559/357
f 353/545/358 347/542/358 360/555/358
f 343/535/359 355/557/359 349/546/359
f 359/702/360 346/700/360 345/550/360 352/551/360
f 351/544/361 335/543/361 356/561/361
f 360/555/362 347/542/362 346/700/362 359/702/362
f 355/557/363 343/535/363 325/531/363 373/552/363
f 357/562/364 358/703/364 352/551/364 351/544/364
f 342/537/365 372/560/365 363/529/365
f 371/563/366 354/701/366 353/545/366 361/556/366
f 352/551/367 358/703/367 359/702/367
f 348/528/368 379/554/368 373/552/368
f 364/558/369 365/565/369 350/549/369 349/546/369
f 366/566/370 367/704/370 357/562/370 356/561/370
f 362/559/371 354/701/371 371/563/371
f 350/549/372 365/565/372 356/561/372
f 355/557/373 380/569/373 364/558/373
f 362/559/374 378/564/374 372/560/374
f 367/704/375 368/705/375 358/703/375 357/562/375
f 369/706/376 359/702/376 358/703/376 368/705/376
f 370/707/377 360/555/377 359/702/377 369/706/377
f 383/577/378 375/576/378 368/705/378 367/704/378
f 361/556/379 360/555/379 370/707/379
f 385/708/380 369/706/380 368/705/380 375/576/380
f 386/709/381 370/707/381 369/706/381 385/708/381
f 386/709/382 376/572/382 361/556/382 370/707/382
f 377/574/383 371/563/383 361/556/383 376/572/383
f 374/570/384 381/710/384 365/565/384 364/558/384
f 382/711/385 366/566/385 365/565/385 381/710/385
f 378/564/386 371/563/386 377/574/386
f 382/711/387 383/577/387 367/704/387 366/566/387
f 395/712/388 378/564/388 377/574/388 394/573/388
f 372/560/389 396/571/389 425/567/389
f 391/713/390 385/708/390 384/578/390 390/714/390
f 396/571/391 378/564/391 395/712/391
f 375/576/392 384/578/392 385/708/392
f 373/552/393 400/579/393 380/569/393
f 392/715/394 386/709/394 385/708/394 391/713/394
f 392/715/395 393/716/395 376/572/395 386/709/395
f 397/584/396 374/570/396 380/569/396 401/580/396
f 397/584/397 387/583/397 381/710/397 374/570/397
f 376/572/398 393/716/398 394/573/398
f 388/717/399 382/711/399 381/710/399 387/583/399
f 388/717/400 389/718/400 383/577/400 382/711/400
f 389/718/401 390/714/401 384/578/401 383/577/401
f 409/719/402 410/720/402 395/712/402 394/573/402
f 404/721/403 388/717/403 387/583/403 403/585/403
f 411/722/404 396/571/404 395/712/404 410/720/404
f 404/721/405 405/588/405 389/718/405 388/717/405
f 405/588/406 398/587/406 390/714/406 389/718/406
f 396/571/407 411/722/407 425/567/407
f 399/723/408 391/713/408 390/714/408 398/587/408
f 407/593/409 392/715/409 391/713/409 399/723/409
f 379/554/410 431/582/410 400/579/410
f 407/593/411 408/724/411 393/716/411 392/715/411
f 409/719/412 394/573/412 393/716/412 408/724/412
f 415/591/413 399/723/413 398/587/413 406/589/413
f 399/723/414 415/591/414 407/593/414
f 403/585/415 397/584/415 402/586/415
f 419/595/416 404/721/416 403/585/416 418/725/416
f 430/597/417 411/722/417 410/720/417 424/605/417
f 419/595/418 413/594/418 405/588/418 404/721/418
f 413/594/419 414/726/419 406/589/419 405/588/419
f 425/567/420 411/722/420 430/597/420
f 412/590/421 416/727/421 401/580/421 400/579/421
f 406/589/422 414/726/422 415/591/422
f 421/592/423 422/728/423 408/724/423 407/593/423
f 417/729/424 402/586/424 401/580/424 416/727/424
f 423/730/425 409/719/425 408/724/425 422/728/425
f 417/729/426 418/725/426 403/585/426 402/586/426
f 423/730/427 424/605/427 410/720/427 409/719/427
f 426/596/428 420/599/428 414/726/428 413/594/428
f 415/591/429 428/603/429 421/592/429
f 428/603/430 415/591/430 414/726/430 420/599/430
f 432/615/431 416/727/431 412/590/431 447/602/431
f 426/596/432 419/595/432 435/608/432
f 420/599/433 427/600/433 428/603/433
f 429/604/434 438/616/434 422/728/434 421/592/434
f 433/731/435 417/729/435 416/727/435 432/615/435
f 439/606/436 423/730/436 422/728/436 438/616/436
f 433/731/437 434/732/437 418/725/437 417/729/437
f 435/608/438 419/595/438 418/725/438 434/732/438
f 424/605/439 423/730/439 439/606/439
f 440/622/440 430/597/440 424/605/440 456/607/440
f 438/616/441 429/604/441 444/617/441
f 442/609/442 436/610/442 427/600/442 426/596/442
f 472/598/443 430/597/443 440/622/443
f 437/733/444 428/603/444 427/600/444 436/610/444
f 444/617/445 429/604/445 428/603/445 437/733/445
f 453/625/446 437/733/446 436/610/446 443/611/446
f 442/609/447 435/608/447 450/623/447
f 448/734/448 433/731/448 432/615/448 441/614/448
f 431/582/449 464/613/449 447/602/449
f 437/733/450 453/625/450 444/617/450
f 445/620/451 439/606/451 438/616/451 455/618/451
f 448/734/452 449/735/452 434/732/452 433/731/452
f 450/623/453 435/608/453 434/732/453 449/735/453
f 456/607/454 439/606/454 445/620/454
f 451/624/455 452/627/455 443/611/455 442/609/455
f 455/618/456 444/617/456 454/626/456
f 456/607/457 445/620/457 463/619/457
f 440/622/458 457/621/458 472/598/458
f 468/736/459 453/625/459 452/627/459 461/628/459
f 443/611/460 452/627/460 453/625/460
f 469/737/461 454/626/461 453/625/461 468/736/461
f 465/640/462 441/614/462 447/602/462 473/629/462
f 469/737/463 462/631/463 455/618/463 454/626/463
f 458/634/464 448/734/464 441/614/464 465/640/464
f 459/633/465 449/735/465 448/734/465 458/634/465
f 455/618/466 462/631/466 463/619/466
f 460/738/467 450/623/467 449/735/467 459/633/467
f 476/643/468 460/738/468 459/633/468 475/635/468
f 456/607/469 471/630/469 457/621/469
f 451/624/470 450/623/470 460/738/470
f 471/630/471 463/619/471 470/632/471
f 476/643/472 466/642/472 451/624/472 460/738/472
f 466/642/473 467/739/473 461/628/473 451/624/473
f 478/740/474 468/736/474 467/739/474 477/741/474
f 461/628/475 467/739/475 468/736/475
f 483/742/476 469/737/476 468/736/476 478/740/476
f 464/613/477 495/637/477 473/629/477
f 483/742/478 479/743/478 462/631/478 469/737/478
f 474/744/479 458/634/479 465/640/479 486/641/479
f 480/745/480 470/632/480 462/631/480 479/743/480
f 480/745/481 494/746/481 471/630/481 470/632/481
f 475/635/482 458/634/482 474/744/482
f 484/747/483 457/621/483 471/630/483 494/746/483
f 503/639/484 472/598/484 457/621/484 484/747/484
f 481/644/485 477/741/485 467/739/485 466/642/485
f 488/666/486 476/748/486 475/645/486 487/647/486
f 491/657/487 478/749/487 477/648/487 482/650/487
f 481/649/488 476/748/488 488/666/488
f 489/667/489 490/750/489 482/650/489 481/649/489
f 478/749/490 491/657/490 483/655/490
f 486/659/491 473/653/491 485/652/491
f 479/654/492 492/656/492 480/662/492
f 482/650/493 490/750/493 491/657/493
f 492/656/494 483/655/494 502/658/494
f 487/647/495 474/646/495 496/660/495
f 494/663/496 480/662/496 493/661/496
f 484/665/497 509/664/497 503/677/497
f 498/751/498 488/666/498 487/647/498 497/671/498
f 498/751/499 499/752/499 489/667/499 488/666/499
f 509/664/500 494/663/500 508/668/500
f 499/752/501 500/753/501 490/750/501 489/667/501
f 501/672/502 491/657/502 490/750/502 500/753/502
f 511/674/503 486/659/503 485/652/503 510/669/503
f 491/657/504 501/672/504 502/658/504
f 504/675/505 505/685/505 497/671/505 496/660/505
f 486/659/506 511/674/506 496/660/506
f 492/656/507 507/670/507 493/661/507
f 507/670/508 502/658/508 516/673/508
f 512/754/509 498/751/509 497/671/509 505/685/509
f 508/668/510 493/661/510 517/676/510
f 512/754/511 513/680/511 499/752/511 498/751/511
f 513/680/512 506/679/512 500/753/512 499/752/512
f 515/755/513 501/672/513 506/679/513 514/681/513
f 500/753/514 506/679/514 501/672/514
f 509/664/515 532/575/515 533/503/515
f 528/691/516 516/673/516 515/755/516 527/694/516
f 501/672/517 515/755/517 516/673/517
f 507/670/518 521/682/518 517/676/518
f 505/685/519 504/675/519 518/683/519
f 523/490/520 511/674/520 510/669/520 530/491/520
f 529/684/521 522/498/521 508/668/521 517/676/521
f 521/682/522 516/673/522 528/691/522
f 511/674/523 523/490/523 518/683/523
f 519/756/524 512/754/524 505/685/524 525/686/524
f 519/756/525 526/689/525 513/680/525 512/754/525
f 508/668/526 522/498/526 532/575/526
f 526/689/527 520/688/527 514/681/527 513/680/527
f 527/694/528 515/755/528 514/681/528 520/688/528
f 296/505/529 530/491/529 510/669/529 495/651/529
f 297/508/530 298/697/530 525/686/530 524/692/530
f 520/688/531 293/690/531 527/694/531
f 521/682/532 295/495/532 529/684/532
f 525/686/533 518/683/533 524/692/533
f 528/691/534 531/493/534 295/495/534
f 298/697/535 299/500/535 519/756/535 525/686/535
f 522/498/536 529/684/536 303/496/536
f 299/500/537 292/499/537 526/689/537 519/756/537
f 531/493/538 528/691/538 527/694/538 294/693/538
f 293/690/539 526/689/539 292/499/539
